<svg width="23" height="27" viewBox="0 0 23 27" fill="none" xmlns="http://www.w3.org/2000/svg">
<path d="M22.8027 12.918C22.6934 15.1966 22.1328 16.9967 21.1211 18.3184C20.1094 19.6309 18.7376 20.2871 17.0059 20.2871C15.3561 20.2871 14.2533 19.5853 13.6973 18.1816C13.2324 18.8743 12.6901 19.3939 12.0703 19.7402C11.4596 20.0866 10.8171 20.2598 10.1426 20.2598C8.81185 20.2598 7.80013 19.7129 7.10742 18.6191C6.42383 17.5254 6.16406 16.0625 6.32812 14.2305C6.47396 12.7448 6.83398 11.4049 7.4082 10.2109C7.99154 9.01693 8.72526 8.09635 9.60938 7.44922C10.5026 6.79297 11.4505 6.46484 12.4531 6.46484C13.2188 6.46484 13.8932 6.56055 14.4766 6.75195C15.069 6.94336 15.7617 7.33984 16.5547 7.94141L15.8438 15.6387C15.6706 17.4434 16.1901 18.3457 17.4023 18.3457C18.332 18.3457 19.0931 17.849 19.6855 16.8555C20.2871 15.8529 20.6152 14.5586 20.6699 12.9727C20.8249 9.60938 20.1732 7.03451 18.7148 5.24805C17.2656 3.46159 15.0827 2.56836 12.166 2.56836C10.3796 2.56836 8.79362 3.01497 7.4082 3.9082C6.0319 4.80143 4.93815 6.0957 4.12695 7.79102C3.31576 9.47721 2.86914 11.4004 2.78711 13.5605C2.67773 15.7572 2.9375 17.653 3.56641 19.248C4.20443 20.834 5.17513 22.0417 6.47852 22.8711C7.79102 23.7005 9.39062 24.1152 11.2773 24.1152C12.043 24.1152 12.8405 24.0241 13.6699 23.8418C14.5085 23.6595 15.2194 23.4134 15.8027 23.1035L16.3223 24.9766C15.7663 25.3411 15.0143 25.6328 14.0664 25.8516C13.1276 26.0794 12.1797 26.1934 11.2227 26.1934C8.90755 26.1934 6.92057 25.7012 5.26172 24.7168C3.60286 23.7415 2.35872 22.3242 1.5293 20.4648C0.672526 18.5417 0.294271 16.2402 0.394531 13.5605C0.503906 11.0632 1.06445 8.82096 2.07617 6.83398C3.08789 4.83789 4.46875 3.28841 6.21875 2.18555C7.97786 1.08268 9.97852 0.53125 12.2207 0.53125C14.4902 0.53125 16.4408 1.03255 18.0723 2.03516C19.7129 3.02865 20.9388 4.46419 21.75 6.3418C22.5612 8.21029 22.9121 10.4023 22.8027 12.918ZM9.00781 14.2305C8.88932 15.4701 8.9987 16.4134 9.33594 17.0605C9.67318 17.6986 10.2109 18.0176 10.9492 18.0176C11.4414 18.0176 11.9062 17.8034 12.3438 17.375C12.7812 16.9375 13.1367 16.3405 13.4102 15.584L14.0254 8.84375C13.5697 8.67057 13.1276 8.58398 12.6992 8.58398C11.6875 8.58398 10.8626 9.0625 10.2246 10.0195C9.58659 10.9674 9.18099 12.3711 9.00781 14.2305Z" fill="#109FCB"/>
</svg>
