<svg width="26" height="26" viewBox="0 0 26 26" fill="none" xmlns="http://www.w3.org/2000/svg">
<rect x="1" y="1" width="24" height="24" rx="12" stroke="#109FCB" stroke-width="2"/>
<path d="M9 13C9 9.5008 9.54726 6.37802 10.3978 4.16659C10.8244 3.05754 11.3078 2.22865 11.7936 1.69438C12.2792 1.16039 12.6883 1 13 1C13.3117 1 13.7208 1.16039 14.2064 1.69438C14.6922 2.22865 15.1756 3.05754 15.6022 4.16659C16.4527 6.37802 17 9.5008 17 13C17 16.4992 16.4527 19.622 15.6022 21.8334C15.1756 22.9425 14.6922 23.7713 14.2064 24.3056C13.7208 24.8396 13.3117 25 13 25C12.6883 25 12.2792 24.8396 11.7936 24.3056C11.3078 23.7713 10.8244 22.9425 10.3978 21.8334C9.54726 19.622 9 16.4992 9 13Z" stroke="#109FCB" stroke-width="2"/>
<path d="M2 9H24M2 17H24" stroke="#109FCB" stroke-width="2"/>
</svg>
