<svg width="32" height="21" viewBox="0 0 32 21" fill="none" xmlns="http://www.w3.org/2000/svg">
<path fill-rule="evenodd" clip-rule="evenodd" d="M15.8191 10.3835L15.8062 10.3795L4.0103 6.29199L15.8202 2.06553L27.6295 6.29178L15.8191 10.3835ZM25.3422 9.20084L27.3452 8.50692V14.5417H29.3452V7.81402L30.9675 7.25198C31.8595 6.94294 31.8659 5.68366 30.9771 5.36556L16.1571 0.0618944C15.9393 -0.0160742 15.7011 -0.0160742 15.4833 0.0618944L0.663054 5.36566C-0.225767 5.68375 -0.219408 6.94297 0.672578 7.25206L6.3427 9.21689L6.34174 9.58935L6.32519 16.004C6.32302 16.8467 6.72369 17.6396 7.40333 18.1377C12.4138 21.8097 19.2324 21.8055 24.2429 18.1334C24.919 17.638 25.3202 16.8503 25.3226 16.0121L25.3411 9.59181L25.3422 9.20084ZM15.9546 12.4327C16.0193 12.4238 16.0833 12.4086 16.1456 12.387L16.4208 12.2916L23.3393 10.1977L23.3226 16.0063C23.322 16.2085 23.2249 16.3999 23.0606 16.5203C18.753 19.6773 12.8914 19.6801 8.58557 16.5245C8.42143 16.4042 8.32466 16.2127 8.32519 16.0092L8.34018 10.1976L15.1873 12.2818L15.4909 12.3869C15.5541 12.4088 15.6189 12.4242 15.6844 12.4331L15.8186 12.4739L15.9546 12.4327Z" fill="#797E9D"/>
</svg>
