<svg width="30" height="23" viewBox="0 0 30 23" fill="none" xmlns="http://www.w3.org/2000/svg">
<path d="M6 10V17.7143C6 20.0812 10.0294 22 15 22C19.9706 22 24 20.0812 24 17.7143V10" stroke="#109FCB" stroke-width="2"/>
<path d="M0.847709 7.62165C0.846301 7.62072 0.845656 7.62024 0.845686 7.62024C0.845716 7.62023 0.84642 7.62069 0.847709 7.62165ZM0.845686 8.37976C0.845656 8.37976 0.846302 8.37928 0.847714 8.37835C0.846422 8.3793 0.845716 8.37977 0.845686 8.37976ZM1.55495 8L14.4975 1.09733L14.0269 0.214977L14.4975 1.09733C14.5851 1.05061 14.7652 1 15 1C15.2348 1 15.4149 1.05061 15.5025 1.09733L28.445 8L15.5025 14.9027C15.4149 14.9494 15.2348 15 15 15C14.7652 15 14.5851 14.9494 14.4975 14.9027L1.55495 8ZM29.1543 8.37976C29.1543 8.37977 29.1536 8.3793 29.1523 8.37835C29.1537 8.37928 29.1543 8.37976 29.1543 8.37976ZM29.1523 7.62165C29.1536 7.62069 29.1543 7.62023 29.1543 7.62024C29.1543 7.62024 29.1537 7.62072 29.1523 7.62165Z" stroke="#109FCB" stroke-width="2"/>
<path d="M27.0757 19.5L28 17.8826L28.9243 19.5L28 21.1174L27.0757 19.5Z" stroke="#109FCB" stroke-width="2"/>
<path d="M15 7L28 8.2V19" stroke="#109FCB" stroke-width="2" stroke-linecap="round"/>
</svg>
