<svg width="92" height="53" viewBox="0 0 92 53" fill="none" xmlns="http://www.w3.org/2000/svg">
<path fill-rule="evenodd" clip-rule="evenodd" d="M23.158 6.72348C-1.39845 14.1033 0.0150654 13.5945 0.0150654 15.0548C0.0150654 15.5192 0.14743 15.8904 0.420263 16.1915C0.715967 16.518 3.18551 17.5452 9.55972 19.9934L18.294 23.348L18.384 31.3929L18.4741 39.4377L18.9717 40.435C21.6996 45.9026 32.4233 49.509 45.9375 49.5035C59.4851 49.498 70.1751 45.903 72.9033 40.435L73.4009 39.4377L73.4909 31.3913L73.581 23.3448L75.832 22.4798C77.0702 22.004 78.22 21.5713 78.3875 21.5181C79.0286 21.3146 79.1233 22.406 79.2069 30.9555L79.2869 39.1421L78.8127 39.4482C78.5519 39.6163 78.1262 40.1107 77.8669 40.5465C77.1733 41.7118 77.2396 42.8029 78.1761 45.6442C78.8527 47.6965 80.7899 52.802 80.9532 52.9627C81.0474 53.0554 82.6912 48.8271 83.6606 45.9989C84.6718 43.0487 84.7837 41.8265 84.1508 40.6373C83.9311 40.2242 83.5571 39.7608 83.3196 39.6078L82.8879 39.3292L82.8162 30.8716C82.7517 23.2776 82.7103 22.3009 82.4101 21.3053C82.2262 20.6955 82.1213 20.152 82.1765 20.0974C82.232 20.0429 84.0486 19.318 86.2132 18.4867C88.3779 17.6554 90.422 16.8489 90.7556 16.6942C91.9924 16.1211 92.3041 14.7594 91.4095 13.839C91.0855 13.506 86.4644 12.0601 68.6053 6.70416C56.2866 3.00966 46.0455 -0.00725742 45.8474 1.31136e-05C45.6493 0.00710632 35.4391 3.03271 23.158 6.72348ZM65.2002 9.39691C75.6536 12.527 84.2661 15.1436 84.3394 15.2116C84.4129 15.2795 83.3988 15.7487 82.0861 16.2543L79.6996 17.1735L78.8013 16.7423C77.5393 16.1365 77.301 16.098 65.6571 14.6166C59.9123 13.8857 53.6317 13.082 51.7003 12.8306C49.7688 12.5791 47.5359 12.3282 46.7383 12.2727L45.2881 12.172L44.8024 12.7403C44.1013 13.5606 44.1287 14.5129 44.8708 15.1277C45.1755 15.3802 45.6011 15.6232 45.8163 15.6677C46.0315 15.712 49.4492 16.1557 53.4111 16.6533C57.373 17.151 62.7217 17.827 65.2969 18.1552C67.8722 18.4837 70.7896 18.8502 71.7801 18.9699C72.7706 19.0898 73.6431 19.2407 73.7191 19.3054C73.7949 19.3701 67.5748 21.8407 59.8964 24.7957L45.9357 30.1685L26.6697 22.7511C16.0733 18.6715 7.46332 15.2784 7.53625 15.211C7.71994 15.0412 45.4035 3.73547 45.8408 3.71898C46.0353 3.71171 54.747 6.26668 65.2002 9.39691ZM34 29.3966C40.3601 31.8469 45.7291 33.8518 45.931 33.8518C46.1327 33.8518 51.5045 31.8473 57.8683 29.3973C64.2322 26.9471 69.5403 24.9037 69.664 24.8564C69.9493 24.747 69.9938 37.9909 69.7105 38.7245C68.7798 41.1351 63.7127 43.6835 57.373 44.9294C50.3228 46.3149 41.5521 46.3149 34.5019 44.9294C28.1623 43.6835 23.0951 41.1351 22.1644 38.7245C21.8812 37.9909 21.9256 24.7471 22.2109 24.8557C22.3348 24.9028 27.6398 26.9462 34 29.3966Z" fill="#109FCB"/>
</svg>
