<svg width="21" height="27" viewBox="0 0 21 27" fill="none" xmlns="http://www.w3.org/2000/svg">
<path fill-rule="evenodd" clip-rule="evenodd" d="M17.1847 8.95614C17.1847 12.597 14.2332 15.5485 10.5924 15.5485C6.95151 15.5485 4 12.597 4 8.95614C4 5.31528 6.95151 2.36377 10.5924 2.36377C14.2332 2.36377 17.1847 5.31528 17.1847 8.95614ZM14.648 16.533C17.3484 15.0846 19.1847 12.2348 19.1847 8.95614C19.1847 4.21071 15.3378 0.36377 10.5924 0.36377C5.84694 0.36377 2 4.21071 2 8.95614C2 12.2009 3.79855 15.0256 6.4531 16.4876C3.17916 18.0144 0.910156 21.3351 0.910156 25.1859C0.910156 25.7381 1.35787 26.1859 1.91016 26.1859C2.46244 26.1859 2.91016 25.7381 2.91016 25.1859C2.91016 20.9927 6.30938 17.5935 10.5025 17.5935C14.6957 17.5935 18.0949 20.9927 18.0949 25.1859C18.0949 25.7381 18.5426 26.1859 19.0949 26.1859C19.6472 26.1859 20.0949 25.7381 20.0949 25.1859C20.0949 21.3729 17.8702 18.0796 14.648 16.533Z" fill="#109FCB"/>
</svg>
