<svg xmlns="http://www.w3.org/2000/svg" xmlns:xlink="http://www.w3.org/1999/xlink" version="1.1" width="1000" height="1000" viewBox="0 0 1000 1000" xml:space="preserve">
<desc>Created with Fabric.js 3.5.0</desc>
<defs>
</defs>
<rect x="0" y="0" width="100%" height="100%" fill="#ffffff"/>
<g transform="matrix(9.7905 0 0 9.7905 499.9995 499.9995)" id="393445">
<path style="stroke: none; stroke-width: 1; stroke-dasharray: none; stroke-linecap: butt; stroke-dashoffset: 0; stroke-linejoin: miter; stroke-miterlimit: 4; is-custom-font: none; font-file-url: none; fill: rgb(16,159,203); fill-rule: evenodd; opacity: 1;" vector-effect="non-scaling-stroke" transform=" translate(-46.4636, -46.486)" d="M 59.5781 0.107142 C 56.0005 0.531092 54.0917 0.941963 51.6768 1.80748 C 47.2142 3.40719 43.4817 5.76797 40.1555 9.09454 C 29.1951 20.0562 27.999 37.1725 37.3202 49.6642 L 38.5292 51.2842 L 37.038 52.7835 L 35.5465 54.2826 L 34.6205 53.7671 C 32.9298 52.8258 31.3717 52.45 29.1533 52.4483 C 27.4813 52.4469 26.9119 52.5255 25.6631 52.9304 C 23.0091 53.7907 22.3532 54.3601 11.7947 64.969 C 2.22819 74.5811 2.052 74.7711 1.3 76.289 C 0.316965 78.2735 -0.066297 80.0695 0.0595799 82.1015 C 0.250847 85.1851 1.46548 87.7727 3.70565 89.8681 C 5.99941 92.0138 8.29989 92.9068 11.5342 92.9068 C 13.0916 92.9068 13.8127 92.8182 14.8037 92.5052 C 17.474 91.6615 17.7314 91.4413 28.1212 81.1078 C 34.8821 74.3834 38.065 71.0903 38.6642 70.1997 C 40.9556 66.7934 41.2144 62.3499 39.3372 58.6472 L 38.7272 57.4436 L 40.2307 55.948 L 41.7343 54.4522 L 42.891 55.3577 C 53.0926 63.3439 67.1714 64.1464 78.2384 57.3726 C 83.2177 54.3249 87.7651 49.2124 90.1045 44.032 C 92.1027 39.6073 92.8907 35.9129 92.8907 30.9697 C 92.8907 26.8882 92.4384 24.1416 91.1858 20.6162 C 89.6554 16.3091 87.5146 12.8928 84.2015 9.47108 C 79.4124 4.52464 73.343 1.37336 66.6745 0.371066 C 65.2291 0.153642 60.6286 -0.0172814 59.5781 0.107142 Z M 65.6631 4.73971 C 75.3562 5.96778 83.997 13.0714 87.0745 22.3418 C 90.2892 32.0254 88.0806 42.0276 81.1033 49.3855 C 72.0392 58.944 56.7696 60.2365 46.2275 52.3377 C 37.6797 45.9333 33.7305 35.0464 36.2302 24.7776 C 38.5694 15.1684 46.0019 7.64995 55.4912 5.29353 C 58.9765 4.42819 61.9333 4.26708 65.6631 4.73971 Z M 59.9172 11.6386 C 53.2539 12.3452 47.4638 16.4285 44.482 22.5234 C 43.2779 24.9845 42.5065 28.317 42.5057 31.0605 C 42.5054 32.5405 42.9231 35.1565 43.4139 36.7451 C 45.2599 42.7219 50.1076 47.6607 55.9143 49.4802 C 59.9703 50.7513 63.5662 50.8076 67.5189 49.6622 C 73.844 47.8292 78.8803 42.7235 80.73 36.2692 C 84.044 24.7053 75.969 12.8683 63.9228 11.6322 C 61.912 11.4259 61.9247 11.4259 59.9172 11.6386 Z M 66.1101 16.5238 C 71.0491 17.9497 75.0706 21.9799 76.478 26.9138 C 76.9717 28.6451 77.1342 31.5408 76.8402 33.371 C 76.2567 37.0034 74.329 40.3567 71.5088 42.6448 C 63.3432 49.27 50.9477 45.6492 47.7083 35.6924 C 46.549 32.1297 46.8537 27.8099 48.5049 24.3961 C 50.533 20.2033 54.7501 16.9799 59.2617 16.1742 C 60.8611 15.8886 64.5647 16.0777 66.1101 16.5238 Z M 32.0005 57.4373 C 34.7201 58.6866 36.2865 61.3059 36.1053 64.3008 C 35.9432 66.977 36.3014 66.5358 25.446 77.4325 C 17.0056 85.9055 15.5644 87.2768 14.6026 87.7527 C 11.8508 89.1143 8.70131 88.6057 6.54778 86.4522 C 4.46872 84.3733 3.92417 81.4464 5.09429 78.6411 C 5.45794 77.7694 6.6584 76.495 15.1506 67.9661 C 20.4544 62.6391 25.1443 58.0728 25.5725 57.8185 C 26.8427 57.0642 27.7425 56.8522 29.4258 56.9103 C 30.6266 56.9518 31.1988 57.0689 32.0005 57.4373 Z" stroke-linecap="round"/>
</g>
</svg>