<svg width="92" height="99" viewBox="0 0 92 99" fill="none" xmlns="http://www.w3.org/2000/svg">
<path fill-rule="evenodd" clip-rule="evenodd" d="M42.5816 0.304561C39.3738 0.803004 36.8524 1.93717 35.4903 3.49414L34.6689 4.43323L33.0532 4.48738C29.4416 4.60834 26.8111 6.52627 24.7296 10.5566C22.6855 14.5144 22.3831 18.3889 23.8636 21.6541C24.3438 22.7132 24.4293 23.1417 24.4293 24.4915V26.0813L23.7388 26.508C22.154 27.4876 21.272 29.5029 21.3069 32.0648C21.3764 37.1705 24.4062 41.8852 27.9217 42.3583L28.822 42.4793L30.1431 44.9104C33.926 51.8708 36.4286 54.3294 41.2297 55.8021C42.8191 56.2896 43.2119 56.3322 46.1258 56.3322C49.0377 56.3322 49.4331 56.2894 51.0148 55.8038C55.7865 54.3384 58.3553 51.8161 62.1084 44.9104L63.4296 42.4793L64.3299 42.3583C67.8453 41.8852 70.8751 37.1705 70.9446 32.0648C70.9794 29.5186 70.0971 27.4872 68.5379 26.5235L67.8728 26.1124L68.136 25.0086C68.9912 21.4225 69.2193 17.2203 68.6936 14.7396C68.116 12.0138 65.5107 8.04848 62.8895 5.90552C61.4815 4.75445 58.5584 2.99531 56.5758 2.10575C52.378 0.222191 47.3091 -0.430047 42.5816 0.304561ZM49.3455 3.07787C51.6173 3.36281 54.0006 4.09607 56.2354 5.1976C60.951 7.5222 63.4138 9.8514 65.273 13.7454L65.9982 15.2644V18.0799C65.9982 19.6285 65.9418 20.9521 65.8728 21.0214C65.8039 21.0908 65.4099 20.9752 64.9973 20.7645C63.9035 20.2066 62.5807 19.8927 54.382 18.246C49.3276 17.2309 46.4992 16.5696 45.4388 16.1557C42.7878 15.1204 40.6782 13.7355 38.5979 11.6643C37.1987 10.2713 36.5916 9.79226 36.2249 9.79226C35.3708 9.79226 35.0312 10.125 34.7067 11.2797C33.9099 14.1147 32.8905 16.0971 31.5294 17.4582C30.5189 18.4687 28.3813 19.9545 27.2834 20.4093C26.6085 20.6889 26.579 20.6837 26.3827 20.2532C26.015 19.4464 25.7434 17.4294 25.8684 16.4345C26.3065 12.9429 28.523 9.10066 30.7447 7.98128C32.0574 7.31982 32.754 7.23054 34.449 7.50568C36.2232 7.79388 36.4543 7.7117 36.9762 6.60691C37.1713 6.19391 37.5601 5.6106 37.8402 5.31031C39.5652 3.46169 44.6057 2.48362 49.3455 3.07787ZM37.3182 14.5302C37.8335 15.1594 40.4993 17.0153 42.0046 17.7927C44.5846 19.125 46.1398 19.5586 53.998 21.1361C58.1692 21.9734 62.1716 22.8353 62.892 23.0513C64.1099 23.4165 64.2272 23.5004 64.5678 24.2504C64.8057 24.7747 64.9353 25.495 64.938 26.3098C64.9428 27.7545 65.2406 28.3253 66.0864 28.511C66.8275 28.6738 67.7687 29.7603 67.9346 30.6443C68.2944 32.5624 67.565 35.8799 66.3945 37.6488C65.6378 38.7922 64.3309 39.5529 63.1233 39.5529C62.5665 39.5529 61.9709 39.6766 61.7363 39.8409C61.5101 39.9995 60.7722 41.1875 60.0966 42.481C57.2142 48 55.1315 50.7249 52.9056 51.8896C50.5359 53.1296 49.065 53.4733 46.1258 53.4733C43.1866 53.4733 41.7156 53.1296 39.3459 51.8896C37.12 50.7249 35.0373 48 32.155 42.481C31.4793 41.1875 30.7414 39.9995 30.5152 39.8409C30.2877 39.6818 29.6906 39.5529 29.1791 39.5529C26.987 39.5529 25.4035 37.8211 24.5343 34.4725C24.1603 33.0315 24.1461 30.685 24.507 29.9911C24.8611 29.3105 25.5274 28.73 26.3086 28.4215C26.656 28.2842 27.0231 28.0167 27.1246 27.827C27.2262 27.6371 27.3094 26.6163 27.3094 25.5583V23.6346L28.8934 22.8378C32.6018 20.9723 35.3726 18.1596 36.4482 15.1686C36.8251 14.1206 36.9234 14.0482 37.3182 14.5302ZM30.1894 57.3059C29.6086 57.5472 24.6668 59.5358 19.2075 61.7248C13.7483 63.9139 8.73696 66.02 8.07128 66.4051C6.35092 67.4007 3.59797 70.2164 2.59954 72.0017C1.57424 73.8349 0.895314 75.8813 0.624588 77.9538C0.48692 79.0087 0.431623 82.7664 0.468104 88.5791L0.524745 97.5724L0.978067 97.9393C1.42141 98.2982 2.4108 98.3063 46.1258 98.3063C89.8536 98.3063 90.83 98.2984 91.2735 97.939L91.7268 97.5718L91.7195 87.5227C91.7124 77.8522 91.6969 77.4187 91.3015 76.0098C90.1543 71.9205 87.5759 68.4598 84.1674 66.4349C82.4766 65.4305 61.0485 56.8333 60.2358 56.8333C59.8956 56.8333 59.4945 56.9819 59.3293 57.1693C59.1665 57.354 57.6769 61.2638 56.0194 65.8575C54.362 70.4512 52.9419 74.2765 52.864 74.3579C52.786 74.4396 52.2878 73.2478 51.7571 71.7094L50.7919 68.9125L51.7166 66.6649C52.7493 64.1543 52.829 63.6218 52.2624 63.0138C51.8765 62.5994 51.7888 62.5935 46.1258 62.5935C40.4628 62.5935 40.3751 62.5994 39.9891 63.0138C39.4235 63.6209 39.5032 64.1556 40.5277 66.6255L41.4436 68.8336L40.4903 71.6737C39.9661 73.2359 39.4715 74.4455 39.3914 74.3618C39.3113 74.2783 37.8896 70.4512 36.2322 65.8575C34.5746 61.2638 33.085 57.354 32.9222 57.1693C32.5194 56.7124 31.4935 56.7636 30.1894 57.3059ZM34.6929 70.1734C36.7924 75.9754 38.3711 80.0609 38.5691 80.2056C39.0679 80.5704 40.0638 80.5055 40.4457 80.0833C40.8297 79.659 44.3977 69.5198 44.3977 68.8528C44.3977 68.6072 44.1385 67.7778 43.8217 67.0096C43.5049 66.2413 43.2457 65.5814 43.2457 65.543C43.2457 65.5048 44.5417 65.4735 46.1258 65.4735C47.7098 65.4735 49.0058 65.5048 49.0058 65.543C49.0058 65.5814 48.7466 66.2413 48.4298 67.0096C48.113 67.7778 47.8538 68.6072 47.8538 68.8528C47.8538 69.5198 51.4218 79.659 51.8058 80.0833C52.1877 80.5055 53.1837 80.5704 53.6825 80.2056C53.9296 80.025 58.7954 67.0186 61.1495 60.2456C61.2242 60.0306 81.4402 68.1829 82.7014 68.9369C85.0975 70.3691 87.2673 73.098 88.1715 75.8166C88.8369 77.8177 88.9564 79.7725 88.9001 87.746L88.8467 95.3302H46.1258H3.40481L3.35143 87.746C3.32167 83.544 3.38273 79.456 3.48814 78.5792C3.71355 76.7056 4.38058 74.6847 5.26322 73.2023C6.09038 71.8131 8.13292 69.779 9.54645 68.9369C10.8152 68.1808 31.0275 60.0314 31.102 60.2456C31.1287 60.3224 32.7446 64.79 34.6929 70.1734ZM62.4959 79.0454C61.5312 79.2399 61.4861 79.5311 61.4861 85.5668V91.1743L61.9921 91.5721C62.4865 91.9611 62.6894 91.9701 71.0055 91.9701H79.513L80.0518 91.5066L80.5906 91.0431V85.4637C80.5906 79.9142 80.5882 79.8819 80.1534 79.447L79.7162 79.0098L71.3212 78.9843C66.7038 78.9701 62.7324 78.9975 62.4959 79.0454ZM77.6145 85.538V89.0901H70.9903H64.3662V85.538V81.9859H70.9903H77.6145V85.538Z" fill="#109FCB"/>
</svg>
