<svg xmlns="http://www.w3.org/2000/svg" xmlns:xlink="http://www.w3.org/1999/xlink" version="1.1" width="1000" height="1000" viewBox="0 0 1000 1000" xml:space="preserve">
<desc>Created with Fabric.js 3.5.0</desc>
<defs>
</defs>
<rect x="0" y="0" width="100%" height="100%" fill="#ffffff"/>
<g transform="matrix(11.9072 0 0 11.9072 500.0001 500)" id="709405">
<path style="stroke: none; stroke-width: 1; stroke-dasharray: none; stroke-linecap: butt; stroke-dashoffset: 0; stroke-linejoin: miter; stroke-miterlimit: 4; is-custom-font: none; font-file-url: none; fill: rgb(16,159,203); fill-rule: evenodd; opacity: 1;" vector-effect="non-scaling-stroke" transform=" translate(-38.6138, -38.5674)" d="M 48.3833 0.539488 C 46.208 0.741451 43.1531 1.26232 41.0744 1.78557 C 36.0507 3.05016 32.6095 5.08948 31.419 7.50722 L 30.9315 8.4972 L 30.8929 17.5882 C 30.8716 22.5882 30.838 26.6916 30.8183 26.7065 C 30.7985 26.7216 30.3797 26.6757 29.8874 26.6047 C 29.3952 26.5335 27.0124 26.4346 24.5922 26.385 C 19.8719 26.2882 17.2335 26.4546 13.6652 27.0742 C 7.78289 28.0957 3.14117 30.1684 1.41747 32.5436 C 0.355302 34.0072 0.420186 32.7015 0.463592 51.7612 L 0.502821 68.9137 L 0.866773 69.6595 C 2.5238 73.0549 8.71858 75.6145 17.4656 76.5179 C 20.0148 76.7812 26.0464 76.8203 28.6196 76.5903 C 37.4959 75.7969 44.0775 73.1248 45.8076 69.6122 L 46.2951 68.6226 L 46.3456 64.8378 L 46.3963 61.053 L 47.0168 61.1447 C 50.9095 61.7199 57.5106 61.6268 62.3298 60.9287 C 68.8447 59.9851 74.2589 57.679 75.876 55.1592 C 76.8797 53.5949 76.8052 55.6444 76.7626 30.7673 L 76.7238 8.20544 L 76.3598 7.45964 C 74.7028 4.0643 68.508 1.50471 59.761 0.601241 C 57.3763 0.354977 50.757 0.319029 48.3833 0.539488 Z M 60.31 3.87367 C 65.8215 4.54206 70.5879 6.10675 72.5868 7.90398 C 73.943 9.12322 73.9677 9.84575 72.6953 11.0556 C 70.2377 13.3917 64.3717 15.0271 56.8605 15.47 C 47.9985 15.9927 38.5626 14.1416 35.2573 11.2322 C 33.863 10.0048 33.8215 9.21167 35.0889 8.01302 C 37.4073 5.82021 43.0566 4.18348 50.3224 3.59922 C 51.9269 3.47019 58.4642 3.64978 60.31 3.87367 Z M 38.6879 16.6009 C 43.7741 18.2196 48.3308 18.7993 55.0209 18.6787 C 59.1782 18.6039 61.2503 18.4126 64.3875 17.8148 C 67.4596 17.2292 70.7565 16.1315 72.7337 15.0356 L 73.666 14.5191 V 17.4553 C 73.666 20.8669 73.6038 21.0945 72.4171 22.0326 C 67.7035 25.7586 54.7778 27.3247 44.4306 25.4235 C 39.5456 24.526 35.8146 22.9285 34.56 21.1973 L 34.1385 20.6156 V 17.5942 V 14.5728 L 35.6674 15.3495 C 36.5082 15.7767 37.8675 16.3399 38.6879 16.6009 Z M 35.3576 25.8705 C 36.9375 26.718 38.5189 27.3099 40.7518 27.8891 C 44.5224 28.8673 47.6314 29.2788 52.2615 29.4122 C 60.1234 29.6389 67.841 28.3033 72.3031 25.9439 C 72.9891 25.5811 73.5765 25.2843 73.6083 25.2843 C 73.64 25.2843 73.666 26.5965 73.666 28.2004 C 73.666 31.4824 73.6454 31.565 72.5874 32.5404 C 69.7677 35.1393 62.186 36.9234 53.9901 36.9164 C 51.4717 36.9143 48.7413 36.7643 46.9599 36.5301 L 46.2824 36.4411 L 46.2731 35.4357 C 46.243 32.1499 42.5749 29.3601 36.1735 27.7545 L 34.2131 27.2629 L 34.1689 26.2735 C 34.1448 25.7295 34.1564 25.2843 34.1949 25.2843 C 34.2332 25.2843 34.7565 25.5482 35.3576 25.8705 Z M 29.5891 29.8261 C 37.4399 30.7588 43.4658 33.442 43.022 35.8076 C 42.8135 36.919 40.5276 38.4419 37.4821 39.4987 C 28.5836 42.5862 13.5579 42.0449 6.50593 38.3828 C 5.14663 37.677 3.78778 36.4731 3.62937 35.8346 C 3.22619 34.2101 6.41285 32.1455 11.2783 30.8792 C 13.6528 30.2612 16.0796 29.8959 20.1174 29.5488 C 21.5489 29.4257 27.7459 29.6071 29.5891 29.8261 Z M 73.5004 42.1791 C 73.0893 43.1715 70.8904 44.6164 68.484 45.4756 C 64.3554 46.9494 59.7613 47.5915 53.6039 47.5554 C 48.7775 47.5273 46.2875 47.295 46.3074 46.8753 C 46.3143 46.7318 46.3312 45.061 46.3447 43.1627 L 46.3696 39.7111 L 47.2273 39.8042 C 47.6991 39.8553 49.4165 39.9723 51.0439 40.0642 C 59.2804 40.5288 67.9344 39.0715 72.6965 36.4179 L 73.5914 35.9193 L 73.632 38.8413 C 73.6591 40.7985 73.6157 41.9008 73.5004 42.1791 Z M 6.84214 42.1112 C 9.19141 43.0351 12.6583 43.8606 16.0901 44.313 C 18.5623 44.6389 25.5428 44.7687 28.1955 44.5381 C 33.83 44.0484 38.2713 42.9741 41.5507 41.3079 L 43.0881 40.5267 L 43.0875 43.5332 C 43.0871 46.2158 43.0566 46.5893 42.8058 47.001 C 41.5853 49.0023 36.6896 50.9008 30.5395 51.7576 C 26.1451 52.3697 20.1153 52.3384 15.6058 51.6802 C 10.2106 50.8925 5.43421 49.0696 4.06492 47.2759 L 3.63519 46.713 L 3.5894 43.5973 L 3.54375 40.4817 L 4.63352 41.0765 C 5.233 41.4036 6.22685 41.8693 6.84214 42.1112 Z M 73.638 50.5792 C 73.5928 52.7671 73.5802 52.8433 73.1836 53.363 C 72.3313 54.479 69.6936 55.8671 66.8792 56.6805 C 63.0523 57.7864 58.914 58.2886 53.7531 58.2734 C 50.5706 58.264 46.4429 57.9915 46.3265 57.7829 C 46.3092 57.7521 46.3161 56.0652 46.3419 54.0345 L 46.3889 50.3424 L 46.7148 50.4159 C 47.5974 50.6149 50.969 50.7877 53.9932 50.7892 C 61.4187 50.7925 67.6791 49.631 72.0607 47.437 L 73.5914 46.6706 L 73.638 47.5001 C 73.6636 47.9562 73.6636 49.3419 73.638 50.5792 Z M 5.35053 52.0902 C 6.21194 52.5165 7.42506 53.0338 8.04646 53.2399 C 18.0866 56.5692 33.7517 55.9966 41.4987 52.0173 C 42.2498 51.6314 42.9146 51.2927 42.9762 51.2645 C 43.0377 51.2364 43.0881 52.5848 43.0881 54.2612 V 57.309 L 42.6591 57.9014 C 41.6307 59.3209 38.5077 60.7873 34.5114 61.7269 C 30.7467 62.612 27.1855 62.9313 22.2057 62.8307 C 16.219 62.7095 12.0164 62.0124 8.04795 60.482 C 6.03861 59.7071 4.03569 58.2854 3.69649 57.3935 C 3.53406 56.9664 3.51154 51.1909 3.67248 51.2643 C 3.73408 51.2924 4.48913 51.6641 5.35053 52.0902 Z M 5.16319 62.7139 C 8.87892 64.5669 13.8888 65.664 20.3156 66.0318 C 28.7143 66.5125 38.0702 64.9189 42.3656 62.2759 L 43.1047 61.8211 L 43.059 65.0472 L 43.0135 68.2731 L 42.1142 69.1154 C 37.8529 73.1074 23.861 74.8079 13.1392 72.6371 C 8.52512 71.7029 4.62472 69.8675 3.77928 68.2328 C 3.4823 67.6584 3.45172 61.702 3.74706 61.9463 C 3.84968 62.0312 4.4869 62.3765 5.16319 62.7139 Z" stroke-linecap="round"/>
</g>
</svg>