<svg xmlns="http://www.w3.org/2000/svg" xmlns:xlink="http://www.w3.org/1999/xlink" version="1.1" width="1000" height="1000" viewBox="0 0 1000 1000" xml:space="preserve">
<desc>Created with Fabric.js 3.5.0</desc>
<defs>
</defs>
<rect x="0" y="0" width="100%" height="100%" fill="#ffffff"/>
<g transform="matrix(13.015 0 0 13.015 499.9991 499.9991)" id="311518">
<path style="stroke: none; stroke-width: 1; stroke-dasharray: none; stroke-linecap: butt; stroke-dashoffset: 0; stroke-linejoin: miter; stroke-miterlimit: 4; is-custom-font: none; font-file-url: none; fill: rgb(16,159,203); fill-rule: evenodd; opacity: 1;" vector-effect="non-scaling-stroke" transform=" translate(-34.9433, -35.5718)" d="M 13.1007 0.710423 C 9.31393 1.43192 3.65374 6.04692 1.31212 10.3221 C 0.20729 12.3394 -0.039167 13.6756 0.147928 16.6365 C 0.782767 26.6868 5.7957 37.5716 14.5193 47.8412 C 16.2007 49.8208 21.1528 54.7367 23.131 56.3901 C 33.077 64.7035 43.1187 69.3888 53.0656 70.357 C 55.9584 70.6385 57.1684 70.5187 59.0096 69.768 C 60.8107 69.0338 62.3635 67.9192 64.355 65.9312 C 66.416 63.8739 67.6481 62.2776 68.6112 60.4162 C 69.5284 58.644 69.7861 57.8079 69.7949 56.5751 C 69.8016 55.6416 69.756 55.4649 69.2768 54.5681 C 68.2967 52.7339 66.4362 50.7406 63.1155 47.9665 C 59.5001 44.9463 55.2149 42.2008 52.6877 41.2857 C 50.5947 40.5278 49.3562 40.7397 47.8534 42.1132 C 46.8131 43.064 46.1907 43.8944 44.4293 46.6813 C 42.7422 49.3507 41.6295 50.8794 41.1401 51.2001 C 40.8075 51.418 40.7482 51.3996 38.9925 50.5336 C 31.7959 46.9836 23.5233 38.7084 19.9581 31.493 L 19.0616 29.6784 L 19.3331 29.3096 C 19.7189 28.7857 21.0224 27.8347 23.5404 26.2402 C 26.4165 24.4189 27.4812 23.6286 28.3688 22.656 C 29.7557 21.1364 29.969 19.9057 29.2089 17.8069 C 27.772 13.8389 21.9766 5.9544 18.1758 2.79658 C 16.0847 1.05923 14.56 0.432442 13.1007 0.710423 Z M 14.9511 4.66111 C 16.5341 5.7119 19.46 8.90684 21.8767 12.2236 C 23.9405 15.0563 25.8853 18.3639 26.1411 19.4773 C 26.3056 20.1924 25.4453 20.8752 19.9783 24.3691 C 17.2752 26.0968 15.8642 27.7098 15.6176 29.3545 C 15.5076 30.0877 15.889 31.1998 16.9967 33.3759 C 20.3419 39.9476 26.9799 47.1169 33.9357 51.6709 C 35.7339 52.8482 39.188 54.5881 40.1262 54.7894 C 41.4609 55.0756 42.72 54.5618 44.0785 53.1765 C 44.9852 52.252 45.4835 51.5457 47.8436 47.8412 C 48.5847 46.6779 49.5102 45.3959 49.9003 44.9924 C 50.5236 44.3474 50.656 44.2698 50.9944 44.3506 C 52.699 44.7577 57.779 48.0197 61.2954 50.9654 C 63.0613 52.4448 64.9608 54.3603 65.7288 55.4367 C 66.285 56.2161 66.3482 56.3776 66.2842 56.8547 C 66.0982 58.242 64.3797 60.9401 62.3139 63.0882 C 60.7734 64.69 59.6 65.605 58.1345 66.3472 C 57.1853 66.828 57.0084 66.8698 55.6972 66.922 C 50.7323 67.1203 43.8869 65.2502 37.5837 61.9734 C 21.2039 53.4582 7.31621 36.3822 4.24381 20.9794 C 3.7756 18.6317 3.49107 15.9209 3.57404 14.5965 C 3.68158 12.8788 4.72759 10.9747 6.72013 8.86986 C 8.53103 6.95674 10.8699 5.23645 12.6623 4.49926 C 13.7252 4.06216 14.0872 4.08782 14.9511 4.66111 Z" stroke-linecap="round"/>
</g>
</svg>