<svg width="21" height="24" viewBox="0 0 21 24" fill="none" xmlns="http://www.w3.org/2000/svg">
<path d="M12.6586 21.8894C6.5812 18.3219 3.54401 14.6377 1.14956 7.17412C0.878515 6.32928 1.00677 5.39402 1.56492 4.70432C2.60146 3.42348 3.73603 2.49297 4.97991 1.82411C6.06889 1.23855 7.39 1.65012 8.14092 2.63241C8.79459 3.48749 9.28361 4.19817 9.70165 4.918C10.262 5.88292 10.0928 7.08431 9.40323 7.96158L8.65789 8.90984C9.59044 10.9427 10.9479 12.8263 13.2324 14.2102L13.6367 13.8748C14.7958 12.9134 16.5368 12.9192 17.4964 14.0797C18.1525 14.8731 18.6773 15.7207 19.0421 16.7482C19.2583 17.357 19.1987 18.0332 18.8694 18.589C18.0835 19.9152 16.9876 20.8663 15.6973 21.7741C14.7982 22.4067 13.6066 22.4459 12.6586 21.8894Z" stroke="white" stroke-width="2"/>
</svg>
