<svg width="116" height="118" viewBox="0 0 116 118" fill="none" xmlns="http://www.w3.org/2000/svg">
<path fill-rule="evenodd" clip-rule="evenodd" d="M85.8343 0.127041C82.0733 0.755991 78.3016 3.48451 76.5282 6.85949C75.1553 9.47209 75.0022 10.4497 75.0022 16.6102C75.0022 22.0499 74.9983 22.093 74.5116 22.093C74.2419 22.093 69.7563 21.6667 64.5438 21.1458C54.2649 20.1181 53.5816 20.1216 51.3916 21.2122C49.9909 21.9098 1.2481 70.6629 0.545859 72.0688C-0.172743 73.5078 -0.182653 75.4959 0.520968 77.0598C0.950331 78.014 4.3592 81.5295 20.3325 97.4918C33.7859 110.936 39.9392 116.933 40.6624 117.305C42.083 118.036 44.5255 118.054 45.8479 117.343C46.396 117.049 56.827 106.77 71.5678 91.9988C99.7281 63.7802 97.4909 66.3467 97.4492 62.3098C97.4361 61.0422 96.9313 55.095 96.3278 49.0938L95.23 38.1827L104.084 29.2735C112.769 20.5341 112.954 20.3288 113.803 18.4836C115.517 14.7583 115.439 10.91 113.572 7.11255C111.929 3.76914 108.453 1.0821 104.759 0.299201C103.595 0.0523695 101.247 -0.0174626 94.8226 0.00351006C90.1959 0.0184905 86.1512 0.0740335 85.8343 0.127041ZM105.915 4.97864C107.741 5.87839 109.36 7.52739 110.222 9.36699C110.763 10.521 110.84 10.9713 110.84 12.9895C110.84 15.1133 110.781 15.4189 110.089 16.8812C109.41 18.3131 108.634 19.1751 102.152 25.6966C98.1998 29.6722 94.8975 32.9251 94.8129 32.9251C94.7281 32.9251 94.6002 32.2249 94.5285 31.3692C94.218 27.6653 92.2335 24.9409 89.0203 23.8072C88.5199 23.6307 86.4316 23.3263 84.3796 23.1308C82.3277 22.9352 80.2507 22.7148 79.7642 22.6408L78.8794 22.5065L78.9693 16.8261C79.0514 11.6431 79.1037 11.0337 79.5651 9.86711C80.2426 8.15404 81.2339 6.8535 82.6596 5.80694C84.9421 4.13144 85.0537 4.11692 95.2888 4.17776L104.398 4.23169L105.915 4.97864ZM64.6035 25.2011C69.1186 25.6429 73.3083 26.0679 73.914 26.1456L75.0154 26.2864L74.9511 29.2876L74.887 32.2885L73.7347 32.7402C69.6727 34.3323 67.3364 38.8525 68.4097 43.0422C69.7867 48.4167 75.6321 51.2088 80.6202 48.8746C86.0786 46.3204 87.3927 39.3517 83.2611 34.8693C82.3964 33.9313 79.9368 32.4641 79.229 32.4641C78.9873 32.4641 78.9202 31.8377 78.9202 29.5833C78.9202 26.2004 78.3302 26.5305 83.4422 27.0527C87.8928 27.5074 88.0265 27.5397 88.997 28.3917C90.1014 29.3613 90.3775 30.1173 90.6612 32.9481C92.4877 51.1745 93.4397 61.2971 93.4397 62.4893C93.4397 63.7081 93.33 64.1167 92.7735 64.9726C92.407 65.5361 81.3346 76.7574 68.1684 89.9084C44.4241 113.625 44.222 113.82 43.3116 113.82C42.4027 113.82 42.2114 113.637 23.206 94.6314C5.09554 76.5212 4.01787 75.3981 4.01787 74.6381C4.01787 73.8761 5.34906 72.5018 28.5052 49.3545C41.9733 35.8916 53.2518 24.7754 53.5687 24.6517C54.5103 24.2843 55.9858 24.3578 64.6035 25.2011ZM75.8255 37.9347C76.6754 39.672 78.3671 41.3344 80.073 42.1088L81.4443 42.7313L81.0085 43.448C79.1021 46.5831 74.1919 46.31 72.6123 42.9809C72.082 41.8633 72.1311 39.9721 72.7222 38.7511C73.1331 37.9023 74.524 36.6126 75.0287 36.6126C75.1113 36.6126 75.4696 37.2076 75.8255 37.9347ZM43.7737 43.6197C38.7463 45.2164 35.6728 50.0203 36.4531 55.0616C37.0705 59.0503 39.7603 62.1607 43.6251 63.3552C49.5774 65.1948 55.9042 61.1946 56.7611 55.0501C57.6403 48.7428 52.8883 43.2602 46.5866 43.3116C45.5465 43.3201 44.2808 43.4586 43.7737 43.6197ZM48.4783 47.5753C49.8906 47.9947 51.5096 49.3653 52.2589 50.776C52.6465 51.5057 52.7539 52.1088 52.7539 53.552C52.7539 55.7267 52.3059 56.7763 50.7943 58.1418C49.4797 59.3294 48.4313 59.7339 46.6387 59.7449C43.0844 59.7668 40.4093 57.1245 40.3888 53.5714C40.3725 50.7147 41.9519 48.5441 44.7836 47.5324C45.9097 47.13 47.0224 47.1429 48.4783 47.5753ZM62.0888 59.9733C60.7618 60.6532 55.7351 63.2319 50.9183 65.7042C46.1015 68.1764 39.1528 71.7321 35.4769 73.6055C31.8009 75.4793 28.5079 77.2755 28.1595 77.5977C26.8965 78.7644 27.6907 80.8626 29.3952 80.8626C30.1588 80.8626 30.8225 80.533 54.4548 68.4161C65.0912 62.9625 66.3246 62.2727 66.6468 61.5967C66.9497 60.9616 66.9591 60.7332 66.7077 60.1261C66.4235 59.44 65.4627 58.7376 64.8084 58.7376C64.6397 58.7376 63.4159 59.2937 62.0888 59.9733ZM46.4241 76.0531C40.348 76.7819 36.2565 82.813 37.7993 88.7667C38.3289 90.8107 38.9392 91.8578 40.5257 93.4445C42.1125 95.0311 43.1595 95.6414 45.2036 96.171C48.4186 97.0041 51.7643 96.2369 54.4318 94.0546C55.7192 93.0013 57.1326 90.8543 57.6023 89.2389C58.0483 87.7054 58.1027 85.0652 57.7182 83.6206C56.4066 78.6915 51.5516 75.4382 46.4241 76.0531ZM50.4882 80.5888C54.1704 82.4689 55.1494 87.191 52.499 90.2873C49.1455 94.2051 42.7193 92.5793 41.6831 87.5508C41.0422 84.4403 42.6977 81.3684 45.591 80.2993C46.8894 79.8197 49.2561 79.9593 50.4882 80.5888Z" fill="#109FCB"/>
</svg>
