<svg width="29" height="22" viewBox="0 0 29 22" fill="none" xmlns="http://www.w3.org/2000/svg">
<path d="M4.42255 3.96858C7.69051 3.82415 10.9203 3.18275 14 2.06406L15.9757 2.78251C18.1466 3.57191 20.3802 4.17644 22.6529 4.58965L23.8423 4.80591L23.2439 8.19719C22.7694 10.8858 22.056 13.5268 21.1122 16.0886L20.9013 16.661C19.958 19.2214 17.4604 20.8718 14.7352 20.7355C12.2785 20.6127 10.1233 19.0579 9.23174 16.7654L7.43525 12.1459L4.42255 3.96858Z" stroke="#109FCB" stroke-width="2"/>
<path d="M13.5 2.5L13.8766 3.12763C15.5646 5.94107 16.1435 9.2827 15.5 12.5V12.5" stroke="#109FCB" stroke-width="2"/>
<path d="M28 4C26.1667 4.83333 22.4 4.8 14 2C6.5 4.00001 3.5 4 0 4" stroke="#109FCB" stroke-width="2"/>
</svg>
