<svg width="25" height="19" viewBox="0 0 25 19" fill="none" xmlns="http://www.w3.org/2000/svg">
<path d="M24.25 2.21971C23.3668 2.59615 22.4257 2.84567 21.4445 2.96683C22.4539 2.38125 23.2243 1.46106 23.5865 0.351923C22.6454 0.897115 21.6063 1.28221 20.499 1.49712C19.6054 0.572596 18.3318 0 16.9424 0C14.2468 0 12.0766 2.12596 12.0766 4.73221C12.0766 5.10721 12.1093 5.46779 12.1895 5.81106C8.14156 5.61923 4.55977 3.73413 2.15359 0.8625C1.73352 1.57067 1.48711 2.38125 1.48711 3.25385C1.48711 4.89231 2.35547 6.34471 3.64984 7.18558C2.86758 7.17115 2.10016 6.95048 1.45 6.60288C1.45 6.61731 1.45 6.63606 1.45 6.65481C1.45 8.95385 3.13773 10.8635 5.35094 11.3034C4.95461 11.4087 4.52266 11.4591 4.07437 11.4591C3.76266 11.4591 3.44797 11.4418 3.15258 11.3784C3.78344 13.2519 5.57359 14.6293 7.70219 14.674C6.04563 15.9332 3.94227 16.6918 1.66523 16.6918C1.26594 16.6918 0.882969 16.6745 0.5 16.6269C2.6568 17.9784 5.21289 18.75 7.96938 18.75C16.9291 18.75 21.8275 11.5385 21.8275 5.2875C21.8275 5.07837 21.8201 4.87644 21.8097 4.67596C22.776 4.00962 23.588 3.1774 24.25 2.21971Z" fill="#3D4859"/>
<path d="M24.25 2.21971C23.3668 2.59615 22.4257 2.84567 21.4445 2.96683C22.4539 2.38125 23.2243 1.46106 23.5865 0.351923C22.6454 0.897115 21.6063 1.28221 20.499 1.49712C19.6054 0.572596 18.3318 0 16.9424 0C14.2468 0 12.0766 2.12596 12.0766 4.73221C12.0766 5.10721 12.1093 5.46779 12.1895 5.81106C8.14156 5.61923 4.55977 3.73413 2.15359 0.8625C1.73352 1.57067 1.48711 2.38125 1.48711 3.25385C1.48711 4.89231 2.35547 6.34471 3.64984 7.18558C2.86758 7.17115 2.10016 6.95048 1.45 6.60288C1.45 6.61731 1.45 6.63606 1.45 6.65481C1.45 8.95385 3.13773 10.8635 5.35094 11.3034C4.95461 11.4087 4.52266 11.4591 4.07437 11.4591C3.76266 11.4591 3.44797 11.4418 3.15258 11.3784C3.78344 13.2519 5.57359 14.6293 7.70219 14.674C6.04563 15.9332 3.94227 16.6918 1.66523 16.6918C1.26594 16.6918 0.882969 16.6745 0.5 16.6269C2.6568 17.9784 5.21289 18.75 7.96938 18.75C16.9291 18.75 21.8275 11.5385 21.8275 5.2875C21.8275 5.07837 21.8201 4.87644 21.8097 4.67596C22.776 4.00962 23.588 3.1774 24.25 2.21971Z" fill="#26ABE2"/>
</svg>
