<svg width="33" height="23" viewBox="0 0 33 23" fill="none" xmlns="http://www.w3.org/2000/svg">
<path fill-rule="evenodd" clip-rule="evenodd" d="M27.3452 2H5.34521C3.68836 2 2.34521 3.34315 2.34521 5V18C2.34521 19.6569 3.68836 21 5.34521 21H27.3452C29.0021 21 30.3452 19.6569 30.3452 18V5C30.3452 3.34315 29.0021 2 27.3452 2ZM5.34521 0C2.58379 0 0.345215 2.23858 0.345215 5V18C0.345215 20.7614 2.58379 23 5.34521 23H27.3452C30.1066 23 32.3452 20.7614 32.3452 18V5C32.3452 2.23858 30.1066 0 27.3452 0H5.34521ZM13.3452 9.5C13.3452 10.8807 12.2259 12 10.8452 12C9.4645 12 8.34521 10.8807 8.34521 9.5C8.34521 8.11929 9.4645 7 10.8452 7C12.2259 7 13.3452 8.11929 13.3452 9.5ZM13.4621 13.1613C14.6023 12.3449 15.3452 11.0092 15.3452 9.5C15.3452 7.01472 13.3305 5 10.8452 5C8.35993 5 6.34521 7.01472 6.34521 9.5C6.34521 11.0092 7.08817 12.3449 8.2283 13.1613C6.51123 14.0919 5.34521 15.9098 5.34521 18H7.34521C7.34521 16.067 8.91222 14.5 10.8452 14.5C12.7782 14.5 14.3452 16.067 14.3452 18H16.3452C16.3452 15.9098 15.1792 14.0919 13.4621 13.1613ZM19.3452 8H26.3452V6H19.3452V8ZM23.3452 13H19.3452V11H23.3452V13ZM19.3452 16V18H27.3452V16H19.3452Z" fill="#797E9D"/>
</svg>
