<svg width="84" height="118" viewBox="0 0 84 118" fill="none" xmlns="http://www.w3.org/2000/svg">
<path fill-rule="evenodd" clip-rule="evenodd" d="M3.81255 0.545054C2.39899 1.25471 1.17653 2.49488 0.533663 3.87139C0.002625 5.00853 0 5.27405 0 58.9232C0 104.065 0.0588 112.974 0.360938 113.702C0.908775 115.021 2.30291 116.475 3.70834 117.192L4.97018 117.835H41.7771C78.3959 117.835 78.5899 117.832 79.7005 117.291C80.9902 116.663 82.5744 115.002 83.1067 113.719C83.6525 112.405 83.6595 5.44763 83.1141 4.13348C82.5662 2.81404 81.1721 1.36039 79.7667 0.643602L78.5048 0L41.6805 0.0105682C5.49544 0.0208722 4.83814 0.0301193 3.81255 0.545054ZM79.1999 4.30284C79.6428 4.74828 79.6727 6.22651 79.7381 30.9214L79.8076 57.0682H41.7412H3.675V31.3254C3.675 15.0562 3.77029 5.33059 3.93356 4.89782C4.07584 4.52133 4.45988 4.10415 4.78669 3.97126C5.1387 3.82806 20.3498 3.75012 42.0562 3.78024C76.8747 3.82832 78.755 3.85474 79.1999 4.30284ZM21.6444 9.10317L21 9.75153V15.5405C21 20.9969 21.0312 21.3694 21.5442 22.0254L22.0881 22.7216H33.2372H44.3864L45.0306 22.073L45.675 21.4246V15.4871V9.54967L44.9833 9.00224C44.3087 8.46802 44.0226 8.45455 33.2903 8.45455H22.2886L21.6444 9.10317ZM54.006 12.0908C51.3222 14.797 50.4 15.8938 50.4 16.3794C50.4 17.3329 66.2605 33.2898 67.2081 33.2898C68.1419 33.2898 75.075 26.3055 75.075 25.365C75.075 24.4114 59.2145 8.45455 58.2669 8.45455C57.7747 8.45455 56.7142 9.35971 54.006 12.0908ZM41.7375 15.5881V18.7585H33.3375H24.9375V15.5881V12.4176H33.3375H41.7375V15.5881ZM64.4616 19.1527C67.7003 22.4209 70.35 25.189 70.35 25.3037C70.35 25.5806 67.3775 28.5341 67.0987 28.5341C66.9792 28.5341 65.9479 27.5534 64.8071 26.3544C61.9054 23.3057 61.9936 23.3953 59.1452 20.608C57.7345 19.2275 56.2375 17.708 55.8185 17.2314L55.0568 16.3648L56.469 14.8174C57.2457 13.9664 58.0369 13.2565 58.2272 13.2401C58.4178 13.2237 61.2231 15.8842 64.4616 19.1527ZM49.2188 30.3439C46.2979 31.7394 44.1053 34.9289 44.1053 37.7813C44.1053 41.7961 48.2507 45.9711 52.2375 45.9711C56.2228 45.9711 60.3658 41.8001 60.3721 37.7813C60.3768 34.8813 58.1359 31.6728 55.125 30.2691C53.1156 29.3323 51.2873 29.3555 49.2188 30.3439ZM54.285 33.9236C54.6748 34.127 55.3187 34.661 55.7156 35.1104C56.3343 35.8106 56.4375 36.1559 56.4375 37.5279C56.4375 39.3329 56.069 40.2275 54.8911 41.282C54.1695 41.9279 53.8752 42.0085 52.2375 42.0085C50.5998 42.0085 50.3055 41.9279 49.5839 41.282C48.4357 40.2542 48.0372 39.3382 48.0386 37.7284C48.0396 36.0742 48.6738 34.857 49.9383 34.0811C50.9607 33.4533 53.2263 33.3714 54.285 33.9236ZM79.5375 86.9685C79.5375 110.733 79.501 112.946 79.1031 113.389C78.6862 113.853 77.1839 113.872 41.7832 113.872C7.82906 113.872 4.8594 113.837 4.41761 113.435C3.95876 113.017 3.9375 111.851 3.9375 87.0145V61.0313H41.7375H79.5375V86.9685ZM9.04549 64.5734C8.4588 65.0049 8.48138 65.1227 10.2617 70.9389C11.7894 75.9295 11.8852 76.1612 12.4703 76.274C13.4936 76.4714 14.1784 76.4169 14.5467 76.1091C14.8481 75.8576 15.9293 72.8446 16.1178 71.7315C16.1829 71.3466 17.5972 66.8168 17.8731 66.1098C18.0293 65.7095 17.9988 65.3304 17.782 64.9771C17.4426 64.4242 16.4787 64.0437 16.0663 64.3003C15.9353 64.3819 15.3177 66.3547 14.6942 68.6845C14.0705 71.0142 13.4786 72.9205 13.3783 72.9205C13.1439 72.9205 12.5375 71.1564 11.9921 68.8876C11.0208 64.8469 10.7654 64.2017 10.1378 64.2017C9.81461 64.2017 9.32321 64.3689 9.04549 64.5734ZM21.3229 64.4228C21.0664 64.5867 21.0058 65.9708 21.0604 70.4293L21.1313 76.223H22.1813H23.2313L23.3021 70.4293C23.3767 64.3267 23.3557 64.2099 22.1813 64.2099C21.8925 64.2099 21.5064 64.3055 21.3229 64.4228ZM28.8842 64.5468C26.7679 65.2805 26.1479 68.0562 27.725 69.7379C28.14 70.1804 28.6275 70.5426 28.8086 70.5426C28.9895 70.5426 29.1375 70.6499 29.1375 70.7809C29.1375 70.912 29.5163 71.1521 29.9793 71.3146C31.7678 71.9421 32.6526 73.6206 31.5173 74.2322C30.6941 74.6756 29.8001 74.5495 28.7687 73.8452C27.6604 73.0882 27.2312 73.0277 26.7871 73.5664C25.9219 74.6156 27.3882 76.1776 29.5439 76.5028C30.8574 76.7012 33.0629 76.0415 33.7901 75.2328C34.3143 74.6499 34.5676 71.9035 34.167 71.15C34.014 70.862 33.2244 70.2213 32.4127 69.726C28.9553 67.6166 28.8149 67.4704 29.5383 66.7423C30.0418 66.2356 31.5063 66.1877 32.7427 66.6379C33.4827 66.9072 33.6701 66.8963 33.8793 66.5719C34.308 65.9069 34.0386 64.8971 33.3375 64.542C32.5172 64.1264 30.0893 64.1291 28.8842 64.5468ZM40.3229 64.6065C40.1016 64.8292 39.8415 65.4532 39.7449 65.9935C39.6483 66.5338 39.4847 67.0947 39.3816 67.2401C39.2784 67.3854 39.0403 68.0987 38.8524 68.8253C38.6644 69.5519 38.2316 71.0264 37.8906 72.102C36.8028 75.5342 36.8868 76.3551 38.3263 76.3551C39.0193 76.3551 39.1332 76.2291 39.4603 75.1001L39.8239 73.8452H41.7428H43.6619L43.9464 75.0341C44.1809 76.0122 44.3478 76.2368 44.8878 76.3002C45.2487 76.3427 45.7653 76.2148 46.0354 76.0161C46.5069 75.669 46.4609 75.4399 44.8838 70.2583C43.9803 67.2905 43.0576 64.7137 42.8329 64.532C42.2678 64.0746 40.808 64.1182 40.3229 64.6065ZM42.363 69.7733C42.9592 71.847 42.9529 71.8636 41.5755 71.8636C40.445 71.8636 40.3749 71.8237 40.5287 71.2692C40.6195 70.9421 40.8896 69.908 41.1293 68.9709C41.6026 67.1201 41.6 67.1185 42.363 69.7733ZM9.53085 80.3208C8.10128 80.9005 8.11703 80.7243 8.19604 95.0711L8.26875 108.31L8.86673 108.911L9.4647 109.513H22.8674H36.2704L36.9041 108.771L37.5375 108.03V95.2225C37.5375 81.2638 37.4979 80.8556 36.0893 80.3166C35.2283 79.9869 10.3443 79.9908 9.53085 80.3208ZM43.0579 80.3866C42.7014 80.571 42.2289 81.0474 42.0079 81.4448C41.6475 82.0936 41.6475 82.2416 42.0079 82.8905C42.7702 84.262 42.9917 84.2897 52.5887 84.2168L61.4709 84.1492L62.1044 83.4078C62.9037 82.4722 62.9037 81.863 62.1044 80.9274L61.4709 80.1861L52.5887 80.1184C45.8128 80.0669 43.5524 80.1306 43.0579 80.3866ZM68.3309 80.3208C68.0145 80.449 67.5654 80.8463 67.3326 81.2038C66.9517 81.7887 66.9488 81.9478 67.3047 82.8049C67.8316 84.0741 68.6396 84.3423 71.62 84.2363C73.9305 84.1542 74.1074 84.1066 74.7044 83.4078C75.5378 82.4321 75.5034 81.7655 74.5702 80.8263C73.8287 80.0799 73.7205 80.0545 71.3546 80.0706C70.008 80.0799 68.6474 80.1924 68.3309 80.3208ZM33.3375 94.8494C33.3375 106.315 33.2556 106.896 32.0528 103.976C31.726 103.182 31.0842 102.061 30.6264 101.484C29.8161 100.462 28.0849 98.9438 27.51 98.7509C27.3158 98.6857 27.3389 98.4487 27.5827 98.0072C28.1258 97.0244 28.6041 95.5805 28.6086 94.9113C28.6272 92.069 25.6486 89.0369 22.8375 89.0369C20.0264 89.0369 17.0478 92.069 17.0664 94.9113C17.0709 95.576 17.5487 97.0238 18.0818 97.9874C18.3713 98.5108 18.37 98.6532 18.0739 98.8421C17.8786 98.9665 17.6513 99.0704 17.5689 99.0727C17.4864 99.0749 16.8732 99.603 16.2062 100.246C14.8197 101.583 13.8742 102.996 13.4075 104.427C13.2297 104.972 12.9163 105.418 12.7108 105.418C12.3942 105.418 12.3375 103.811 12.3375 94.8494V84.2813H22.8375H33.3375V94.8494ZM43.1437 88.7653C42.4552 89.0515 41.7375 90.0393 41.7375 90.7012C41.7375 90.9707 42.0827 91.5387 42.5048 91.9635L43.2721 92.7358H52.2375H61.2029L61.997 91.9366C62.6372 91.2922 62.7572 90.9976 62.6165 90.4174C62.5204 90.0214 62.2099 89.4597 61.9264 89.169C61.4334 88.6636 61.0263 88.6383 52.5585 88.5862C47.69 88.5561 43.4532 88.6367 43.1437 88.7653ZM67.7019 89.284C67.0394 89.9506 66.917 90.2438 67.0585 90.8269C67.4321 92.3675 67.9783 92.6037 71.1674 92.6037C74.0229 92.6037 74.0809 92.5915 74.7041 91.8623C75.5034 90.9268 75.5037 90.3178 74.7044 89.382C74.0964 88.67 73.9617 88.6372 71.2955 88.5505L68.5196 88.4607L67.7019 89.284ZM23.9985 92.5781C25.1459 93.0608 25.6497 94.4027 25.1992 95.7763C24.8349 96.8878 24.2823 97.2273 22.8375 97.2273C21.3927 97.2273 20.8401 96.8878 20.4758 95.7763C20.0377 94.4402 20.5307 93.0661 21.6192 92.5892C22.6719 92.1281 22.9257 92.1271 23.9985 92.5781ZM43.05 97.305C42.6891 97.4886 42.2286 97.9855 42.027 98.4088C41.712 99.0701 41.7131 99.2733 42.0349 99.8503C42.751 101.134 43.1146 101.182 52.1548 101.186C56.8992 101.189 60.8924 101.08 61.263 100.938C61.6258 100.799 62.1122 100.394 62.344 100.038C62.7233 99.4556 62.726 99.296 62.3703 98.4395C62.1335 97.869 61.7006 97.3829 61.2893 97.2257C60.2193 96.8162 43.8703 96.8872 43.05 97.305ZM68.2579 97.2886C67.9014 97.477 67.4289 97.9565 67.2079 98.3538C66.8475 99.0027 66.8475 99.1507 67.2079 99.7996C67.8227 100.905 68.6503 101.182 71.3546 101.186C73.7318 101.19 73.826 101.167 74.597 100.391C75.2372 99.7467 75.3572 99.4521 75.2165 98.872C74.8598 97.4009 74.2539 97.1023 71.4588 97.0204C69.7436 96.9702 68.6936 97.0582 68.2579 97.2886ZM26.0334 101.36C26.5136 101.618 26.9653 101.834 27.0375 101.84C27.2084 101.854 28.4778 103.132 28.4923 103.304C28.4983 103.377 28.7049 103.817 28.9517 104.282C29.1981 104.747 29.4 105.193 29.4 105.272C29.4 105.352 26.4469 105.418 22.8375 105.418C19.2281 105.418 16.275 105.352 16.275 105.272C16.275 105.193 16.4769 104.747 16.7234 104.282C16.9701 103.817 17.1767 103.377 17.1827 103.304C17.1972 103.131 18.4677 101.853 18.6375 101.842C18.7097 101.836 19.0641 101.667 19.425 101.465C19.7859 101.264 20.4356 101.005 20.8688 100.891C22.0912 100.568 25.0598 100.838 26.0334 101.36ZM43.1309 105.687C42.8145 105.814 42.3654 106.21 42.1326 106.567C41.7517 107.152 41.7488 107.311 42.1047 108.169C42.8004 109.844 44.5552 110.012 45.5419 108.496C46.5103 107.008 44.8011 105.017 43.1309 105.687ZM49.4437 105.682C48.7722 105.952 48.0375 106.941 48.0375 107.575C48.0375 107.826 48.3142 108.354 48.6523 108.75C49.7724 110.06 51.6849 109.516 52.1089 107.767C52.4136 106.509 50.7074 105.174 49.4437 105.682ZM55.7721 105.672C54.4404 106.209 54.0367 107.678 54.9331 108.727C55.796 109.737 57.0709 109.746 57.9227 108.75C58.6937 107.848 58.7 107.212 57.9469 106.379C57.2539 105.611 56.5163 105.371 55.7721 105.672ZM61.378 106.217C60.7352 106.864 60.6181 107.153 60.763 107.735C61.256 109.711 63.3675 110.146 64.444 108.493C64.8233 107.91 64.826 107.751 64.4703 106.894C64.1151 106.038 63.2609 105.418 62.4377 105.418C62.2915 105.418 61.8148 105.777 61.378 106.217ZM68.3437 105.68C67.6568 105.959 66.9375 106.946 66.9375 107.61C66.9375 107.88 67.2948 108.46 67.7316 108.9C68.6679 109.842 69.5882 109.775 70.5469 108.696C71.3391 107.803 71.2905 107.116 70.3702 106.19C69.5654 105.38 69.2669 105.305 68.3437 105.68ZM74.6309 105.687C74.3145 105.814 73.8654 106.21 73.6326 106.567C73.2517 107.152 73.2488 107.311 73.6047 108.169C74.3004 109.844 76.0552 110.012 77.0419 108.496C78.0103 107.008 76.3011 105.017 74.6309 105.687Z" fill="#109FCB"/>
</svg>
