<svg width="26" height="17" viewBox="0 0 26 17" fill="none" xmlns="http://www.w3.org/2000/svg">
<path d="M25.6174 14.6755C25.5871 14.6012 25.5589 14.5396 25.5327 14.4902C25.099 13.6002 24.2701 12.5078 23.0466 11.2127L23.0207 11.183L23.0078 11.1685L22.9947 11.1536H22.9816C22.4263 10.5505 22.0746 10.145 21.9274 9.93739C21.6579 9.54192 21.5976 9.14162 21.7448 8.73602C21.8489 8.42958 22.2397 7.78241 22.9163 6.79364C23.2722 6.26962 23.5541 5.84963 23.7623 5.53322C25.2636 3.2593 25.9145 1.80623 25.7148 1.17345L25.6373 1.02558C25.5852 0.936557 25.4507 0.855115 25.234 0.780841C25.0168 0.706723 24.7392 0.694466 24.4007 0.743861L20.6521 0.773362C20.5913 0.748847 20.5046 0.751132 20.3916 0.780841C20.2788 0.810551 20.2224 0.825458 20.2224 0.825458L20.1571 0.862595L20.1053 0.90721C20.0619 0.936712 20.0142 0.9886 19.9621 1.06277C19.9102 1.13668 19.8669 1.22342 19.8322 1.32226C19.4241 2.51848 18.9601 3.63067 18.4393 4.65876C18.1182 5.27181 17.8233 5.8031 17.554 6.25294C17.2851 6.70264 17.0595 7.03396 16.8774 7.24634C16.695 7.45893 16.5304 7.62924 16.3826 7.7579C16.2351 7.8866 16.1224 7.94098 16.0444 7.92109C15.9662 7.9012 15.8926 7.88146 15.8229 7.86172C15.7015 7.7727 15.6038 7.65163 15.5302 7.49841C15.4562 7.34518 15.4065 7.15233 15.3804 6.92001C15.3545 6.68752 15.3392 6.48756 15.3348 6.31943C15.3308 6.15151 15.3326 5.91399 15.3414 5.60754C15.3505 5.30094 15.3545 5.0935 15.3545 4.98473C15.3545 4.609 15.361 4.20122 15.3739 3.7613C15.387 3.32137 15.3976 2.9728 15.4065 2.71601C15.4153 2.45896 15.4194 2.187 15.4194 1.9003C15.4194 1.61359 15.4041 1.38874 15.3739 1.22555C15.3439 1.06256 15.298 0.904354 15.2375 0.750976C15.1767 0.597754 15.0876 0.479228 14.9707 0.395086C14.8536 0.311047 14.708 0.244357 14.5347 0.194806C14.0747 0.0762279 13.489 0.0120824 12.7773 0.00210999C11.1633 -0.0176271 10.1263 0.101107 9.66637 0.358156C9.48415 0.466762 9.31925 0.615153 9.17181 0.802863C9.01557 1.02044 8.99378 1.13917 9.10657 1.1587C9.6273 1.24757 9.99595 1.46016 10.2129 1.79626L10.2911 1.97436C10.3519 2.10286 10.4126 2.33036 10.4734 2.65654C10.5341 2.98272 10.5733 3.34354 10.5905 3.73881C10.6338 4.46061 10.6338 5.07849 10.5905 5.59248C10.547 6.10668 10.506 6.50698 10.4669 6.79369C10.4277 7.0804 10.3692 7.31272 10.2911 7.49062C10.2129 7.66856 10.1609 7.77732 10.1348 7.8168C10.1088 7.85627 10.0871 7.88115 10.0698 7.89091C9.95706 7.94015 9.83975 7.96524 9.71835 7.96524C9.59676 7.96524 9.44932 7.89595 9.2758 7.75748C9.10233 7.61901 8.92229 7.42881 8.73569 7.18656C8.54908 6.94426 8.33864 6.60567 8.10426 6.17072C7.87006 5.73578 7.62706 5.22174 7.3754 4.62858L7.16719 4.19842C7.03703 3.92168 6.85923 3.51874 6.6336 2.98994C6.40783 2.46093 6.20828 1.94922 6.03481 1.45491C5.96547 1.24731 5.86129 1.08926 5.72247 0.980498L5.65732 0.935881C5.61401 0.896407 5.54449 0.854492 5.44911 0.809824C5.3536 0.765207 5.25394 0.733212 5.14972 0.713527L1.58321 0.743029C1.21876 0.743029 0.971479 0.837092 0.841272 1.02496L0.789162 1.11383C0.76313 1.16332 0.75 1.24238 0.75 1.35119C0.75 1.45995 0.776032 1.59344 0.828142 1.75149C1.34879 3.14555 1.91498 4.49001 2.52671 5.78507C3.13844 7.08014 3.67003 8.12334 4.12115 8.91376C4.57236 9.70475 5.03228 10.4513 5.5009 11.153C5.96953 11.8549 6.27972 12.3048 6.43149 12.5024C6.58345 12.7004 6.7028 12.8485 6.78956 12.9473L7.11503 13.3031C7.32329 13.5404 7.62911 13.8247 8.03264 14.1558C8.43625 14.4871 8.88308 14.8133 9.37336 15.1348C9.86373 15.4559 10.4342 15.7179 11.0851 15.9205C11.7359 16.1233 12.3693 16.2047 12.9855 16.1654H14.4824C14.786 16.1356 15.016 16.0268 15.1723 15.8391L15.2241 15.7648C15.259 15.7058 15.2916 15.6141 15.3217 15.4907C15.3521 15.3672 15.3672 15.231 15.3672 15.0829C15.3584 14.6579 15.3868 14.2749 15.4517 13.9338C15.5166 13.5929 15.5905 13.3359 15.6732 13.1627C15.7559 12.9898 15.8491 12.8438 15.9529 12.7255C16.057 12.6069 16.1311 12.5351 16.1746 12.5104C16.2178 12.4855 16.2523 12.4686 16.2784 12.4585C16.4866 12.3794 16.7317 12.456 17.014 12.6885C17.2961 12.9209 17.5606 13.2077 17.8081 13.5487C18.0554 13.8899 18.3526 14.2727 18.6996 14.6978C19.0469 15.1229 19.3505 15.439 19.6108 15.6469L19.871 15.8249C20.0448 15.9436 20.2704 16.0524 20.5482 16.1512C20.8254 16.25 21.0683 16.2747 21.2769 16.2253L24.6089 16.1661C24.9385 16.1661 25.195 16.1039 25.3769 15.9806C25.5591 15.857 25.6674 15.7209 25.7023 15.5728C25.7372 15.4246 25.739 15.2564 25.709 15.0684C25.6781 14.8808 25.6477 14.7497 25.6174 14.6755Z" fill="#0060FF"/>
<path d="M25.6174 14.6755C25.5871 14.6012 25.5589 14.5396 25.5327 14.4902C25.099 13.6002 24.2701 12.5078 23.0466 11.2127L23.0207 11.183L23.0078 11.1685L22.9947 11.1536H22.9816C22.4263 10.5505 22.0746 10.145 21.9274 9.93739C21.6579 9.54192 21.5976 9.14162 21.7448 8.73602C21.8489 8.42958 22.2397 7.78241 22.9163 6.79364C23.2722 6.26962 23.5541 5.84963 23.7623 5.53322C25.2636 3.2593 25.9145 1.80623 25.7148 1.17345L25.6373 1.02558C25.5852 0.936557 25.4507 0.855115 25.234 0.780841C25.0168 0.706723 24.7392 0.694466 24.4007 0.743861L20.6521 0.773362C20.5913 0.748847 20.5046 0.751132 20.3916 0.780841C20.2788 0.810551 20.2224 0.825458 20.2224 0.825458L20.1571 0.862595L20.1053 0.90721C20.0619 0.936712 20.0142 0.9886 19.9621 1.06277C19.9102 1.13668 19.8669 1.22342 19.8322 1.32226C19.4241 2.51848 18.9601 3.63067 18.4393 4.65876C18.1182 5.27181 17.8233 5.8031 17.554 6.25294C17.2851 6.70264 17.0595 7.03396 16.8774 7.24634C16.695 7.45893 16.5304 7.62924 16.3826 7.7579C16.2351 7.8866 16.1224 7.94098 16.0444 7.92109C15.9662 7.9012 15.8926 7.88146 15.8229 7.86172C15.7015 7.7727 15.6038 7.65163 15.5302 7.49841C15.4562 7.34518 15.4065 7.15233 15.3804 6.92001C15.3545 6.68752 15.3392 6.48756 15.3348 6.31943C15.3308 6.15151 15.3326 5.91399 15.3414 5.60754C15.3505 5.30094 15.3545 5.0935 15.3545 4.98473C15.3545 4.609 15.361 4.20122 15.3739 3.7613C15.387 3.32137 15.3976 2.9728 15.4065 2.71601C15.4153 2.45896 15.4194 2.187 15.4194 1.9003C15.4194 1.61359 15.4041 1.38874 15.3739 1.22555C15.3439 1.06256 15.298 0.904354 15.2375 0.750976C15.1767 0.597754 15.0876 0.479228 14.9707 0.395086C14.8536 0.311047 14.708 0.244357 14.5347 0.194806C14.0747 0.0762279 13.489 0.0120824 12.7773 0.00210999C11.1633 -0.0176271 10.1263 0.101107 9.66637 0.358156C9.48415 0.466762 9.31925 0.615153 9.17181 0.802863C9.01557 1.02044 8.99378 1.13917 9.10657 1.1587C9.6273 1.24757 9.99595 1.46016 10.2129 1.79626L10.2911 1.97436C10.3519 2.10286 10.4126 2.33036 10.4734 2.65654C10.5341 2.98272 10.5733 3.34354 10.5905 3.73881C10.6338 4.46061 10.6338 5.07849 10.5905 5.59248C10.547 6.10668 10.506 6.50698 10.4669 6.79369C10.4277 7.0804 10.3692 7.31272 10.2911 7.49062C10.2129 7.66856 10.1609 7.77732 10.1348 7.8168C10.1088 7.85627 10.0871 7.88115 10.0698 7.89091C9.95706 7.94015 9.83975 7.96524 9.71835 7.96524C9.59676 7.96524 9.44932 7.89595 9.2758 7.75748C9.10233 7.61901 8.92229 7.42881 8.73569 7.18656C8.54908 6.94426 8.33864 6.60567 8.10426 6.17072C7.87006 5.73578 7.62706 5.22174 7.3754 4.62858L7.16719 4.19842C7.03703 3.92168 6.85923 3.51874 6.6336 2.98994C6.40783 2.46093 6.20828 1.94922 6.03481 1.45491C5.96547 1.24731 5.86129 1.08926 5.72247 0.980498L5.65732 0.935881C5.61401 0.896407 5.54449 0.854492 5.44911 0.809824C5.3536 0.765207 5.25394 0.733212 5.14972 0.713527L1.58321 0.743029C1.21876 0.743029 0.971479 0.837092 0.841272 1.02496L0.789162 1.11383C0.76313 1.16332 0.75 1.24238 0.75 1.35119C0.75 1.45995 0.776032 1.59344 0.828142 1.75149C1.34879 3.14555 1.91498 4.49001 2.52671 5.78507C3.13844 7.08014 3.67003 8.12334 4.12115 8.91376C4.57236 9.70475 5.03228 10.4513 5.5009 11.153C5.96953 11.8549 6.27972 12.3048 6.43149 12.5024C6.58345 12.7004 6.7028 12.8485 6.78956 12.9473L7.11503 13.3031C7.32329 13.5404 7.62911 13.8247 8.03264 14.1558C8.43625 14.4871 8.88308 14.8133 9.37336 15.1348C9.86373 15.4559 10.4342 15.7179 11.0851 15.9205C11.7359 16.1233 12.3693 16.2047 12.9855 16.1654H14.4824C14.786 16.1356 15.016 16.0268 15.1723 15.8391L15.2241 15.7648C15.259 15.7058 15.2916 15.6141 15.3217 15.4907C15.3521 15.3672 15.3672 15.231 15.3672 15.0829C15.3584 14.6579 15.3868 14.2749 15.4517 13.9338C15.5166 13.5929 15.5905 13.3359 15.6732 13.1627C15.7559 12.9898 15.8491 12.8438 15.9529 12.7255C16.057 12.6069 16.1311 12.5351 16.1746 12.5104C16.2178 12.4855 16.2523 12.4686 16.2784 12.4585C16.4866 12.3794 16.7317 12.456 17.014 12.6885C17.2961 12.9209 17.5606 13.2077 17.8081 13.5487C18.0554 13.8899 18.3526 14.2727 18.6996 14.6978C19.0469 15.1229 19.3505 15.439 19.6108 15.6469L19.871 15.8249C20.0448 15.9436 20.2704 16.0524 20.5482 16.1512C20.8254 16.25 21.0683 16.2747 21.2769 16.2253L24.6089 16.1661C24.9385 16.1661 25.195 16.1039 25.3769 15.9806C25.5591 15.857 25.6674 15.7209 25.7023 15.5728C25.7372 15.4246 25.739 15.2564 25.709 15.0684C25.6781 14.8808 25.6477 14.7497 25.6174 14.6755Z" fill="#5380BA"/>
</svg>
