<svg width="23" height="26" viewBox="0 0 23 26" fill="none" xmlns="http://www.w3.org/2000/svg">
<path d="M14.0616 24.2978C7.24603 20.3291 3.87845 16.2603 1.22107 7.90871C0.952046 7.06322 1.08139 6.12865 1.63327 5.43392C2.84468 3.90893 4.17878 2.82648 5.65069 2.06757C6.74965 1.50095 8.06618 1.91042 8.82137 2.88942C9.65036 3.96409 10.2444 4.82711 10.7487 5.71667C11.299 6.68736 11.1319 7.88715 10.4424 8.76443L9.5127 9.94719C10.5373 12.1808 12.0288 14.2503 14.5388 15.7708L15.1831 15.2365C16.3422 14.2751 18.0743 14.2872 19.0563 15.4288C19.876 16.3819 20.5228 17.3944 20.9547 18.6525C21.1644 19.2636 21.105 19.9376 20.7821 20.4971C19.8866 22.0485 18.6108 23.1351 17.1027 24.1825C16.1999 24.8096 15.0116 24.851 14.0616 24.2978Z" stroke="#109FCB" stroke-width="2"/>
</svg>
