<svg width="303" height="50" viewBox="0 0 303 50" fill="none" xmlns="http://www.w3.org/2000/svg">
<g clip-path="url(#clip0_0_6343)">
<path d="M47.0977 14.0964C47.0763 14.2104 47.0505 14.3245 47.0248 14.4385C46.4901 16.8026 45.2538 18.9399 43.4853 20.558C41.7167 22.1762 39.5023 23.196 37.1451 23.4779H16.8711C16.8754 23.3902 16.884 23.3069 16.8925 23.2192C16.8947 23.1911 16.899 23.1633 16.9054 23.1359C17.1962 20.6463 18.3689 18.3518 20.202 16.6863C22.035 15.0207 24.4014 14.0993 26.8538 14.0964H47.098H47.0977Z" fill="#109FCB"/>
<path d="M47.0977 14.0964C47.0763 14.2104 47.0505 14.3245 47.0248 14.4385C46.4901 16.8026 45.2538 18.9399 43.4853 20.558C41.7167 22.1762 39.5023 23.196 37.1451 23.4779H16.8711C16.8754 23.3902 16.884 23.3069 16.8925 23.2192C16.8947 23.1911 16.899 23.1633 16.9054 23.1359C17.1962 20.6463 18.3689 18.3518 20.202 16.6863C22.035 15.0207 24.4014 14.0993 26.8538 14.0964H47.098H47.0977Z" fill="white"/>
<path d="M13.8822 23.2193C13.8722 23.3052 13.8665 23.3915 13.865 23.478H0V2.02743e-06H35.7993C38.7275 -0.00175431 41.5463 1.13767 43.6815 3.18625C45.8168 5.23483 47.108 8.03849 47.2922 11.0263H26.8549C23.6062 11.0302 20.476 12.2738 18.0772 14.5138C15.6784 16.7537 14.184 19.8285 13.8865 23.1359C13.8807 23.1633 13.8792 23.1914 13.8822 23.2193V23.2193Z" fill="#109FCB"/>
<path d="M13.8822 23.2193C13.8722 23.3052 13.8665 23.3915 13.865 23.478H0V2.02743e-06H35.7993C38.7275 -0.00175431 41.5463 1.13767 43.6815 3.18625C45.8168 5.23483 47.108 8.03849 47.2922 11.0263H26.8549C23.6062 11.0302 20.476 12.2738 18.0772 14.5138C15.6784 16.7537 14.184 19.8285 13.8865 23.1359C13.8807 23.1633 13.8792 23.1914 13.8822 23.2193V23.2193Z" fill="white"/>
<path d="M13.9079 26.5219C14.1341 28.696 14.8806 30.7797 16.0815 32.5888C17.2823 34.3979 18.9006 35.8768 20.7932 36.8946C18.694 38.0246 16.9361 39.7189 15.7092 41.7948C14.4822 43.8708 13.8327 46.2498 13.8307 48.6753C13.8307 49.0043 13.8435 49.3332 13.8693 49.6578C13.8779 49.7719 13.8864 49.8859 13.8993 49.9999H0V26.5219H13.908H13.9079Z" fill="#109FCB"/>
<path d="M13.9079 26.5219C14.1341 28.696 14.8806 30.7797 16.0815 32.5888C17.2823 34.3979 18.9006 35.8768 20.7932 36.8946C18.694 38.0246 16.9361 39.7189 15.7092 41.7948C14.4822 43.8708 13.8327 46.2498 13.8307 48.6753C13.8307 49.0043 13.8435 49.3332 13.8693 49.6578C13.8779 49.7719 13.8864 49.8859 13.8993 49.9999H0V26.5219H13.908H13.9079Z" fill="white"/>
<path d="M16.9336 26.522H39.0782C41.4011 26.7997 43.5862 27.7942 45.3427 29.373C47.0992 30.9517 48.3437 33.04 48.9107 35.3597H26.8562C24.438 35.3572 22.1022 34.4614 20.2788 32.8374C18.4555 31.2135 17.2675 28.9706 16.9336 26.522V26.522Z" fill="#109FCB"/>
<path d="M16.9336 26.522H39.0782C41.4011 26.7997 43.5862 27.7942 45.3427 29.373C47.0992 30.9517 48.3437 33.04 48.9107 35.3597H26.8562C24.438 35.3572 22.1022 34.4614 20.2788 32.8374C18.4555 31.2135 17.2675 28.9706 16.9336 26.522V26.522Z" fill="white"/>
<path d="M49.2468 38.4298C49.2468 38.5439 49.2425 38.6579 49.2382 38.7719C49.102 41.7983 47.8296 44.6544 45.6857 46.7459C43.5418 48.8373 40.6915 50.0029 37.7283 50H16.9179C16.9007 49.8859 16.8878 49.7719 16.8792 49.6579C16.8492 49.3333 16.832 49.0088 16.832 48.6754C16.8351 45.9591 17.892 43.355 19.7706 41.4342C21.6493 39.5135 24.1964 38.4331 26.8533 38.4299H49.2467L49.2468 38.4298Z" fill="#109FCB"/>
<path d="M49.2468 38.4298C49.2468 38.5439 49.2425 38.6579 49.2382 38.7719C49.102 41.7983 47.8296 44.6544 45.6857 46.7459C43.5418 48.8373 40.6915 50.0029 37.7283 50H16.9179C16.9007 49.8859 16.8878 49.7719 16.8792 49.6579C16.8492 49.3333 16.832 49.0088 16.832 48.6754C16.8351 45.9591 17.892 43.355 19.7706 41.4342C21.6493 39.5135 24.1964 38.4331 26.8533 38.4299H49.2467L49.2468 38.4298Z" fill="white"/>
<path d="M47.0977 14.0964C47.0763 14.2104 47.0505 14.3245 47.0248 14.4385C46.4901 16.8026 45.2538 18.9399 43.4853 20.558C41.7167 22.1762 39.5023 23.196 37.1451 23.4779H16.8711C16.8754 23.3902 16.884 23.3069 16.8925 23.2192C16.8947 23.1911 16.899 23.1633 16.9054 23.1359C17.1962 20.6463 18.3689 18.3518 20.202 16.6863C22.035 15.0207 24.4014 14.0993 26.8538 14.0964H47.098H47.0977Z" fill="#109FCB"/>
<path d="M47.0977 14.0964C47.0763 14.2104 47.0505 14.3245 47.0248 14.4385C46.4901 16.8026 45.2538 18.9399 43.4853 20.558C41.7167 22.1762 39.5023 23.196 37.1451 23.4779H16.8711C16.8754 23.3902 16.884 23.3069 16.8925 23.2192C16.8947 23.1911 16.899 23.1633 16.9054 23.1359C17.1962 20.6463 18.3689 18.3518 20.202 16.6863C22.035 15.0207 24.4014 14.0993 26.8538 14.0964H47.098H47.0977Z" fill="white"/>
<path d="M48.9107 35.3596H26.8562C24.438 35.357 22.1022 34.4613 20.2788 32.8373C18.4555 31.2133 17.2675 28.9705 16.9336 26.5219H39.0782C41.4011 26.7996 43.5862 27.7941 45.3427 29.3728C47.0992 30.9516 48.3437 33.0398 48.9107 35.3596V35.3596Z" fill="#109FCB"/>
<path d="M48.9107 35.3596H26.8562C24.438 35.357 22.1022 34.4613 20.2788 32.8373C18.4555 31.2133 17.2675 28.9705 16.9336 26.5219H39.0782C41.4011 26.7996 43.5862 27.7941 45.3427 29.3728C47.0992 30.9516 48.3437 33.0398 48.9107 35.3596V35.3596Z" fill="white"/>
<path d="M49.2468 38.4298C49.2468 38.5439 49.2425 38.6579 49.2382 38.7719C49.102 41.7983 47.8296 44.6544 45.6857 46.7459C43.5418 48.8373 40.6915 50.0029 37.7283 50H16.9179C16.9007 49.8859 16.8878 49.7719 16.8792 49.6579C16.8492 49.3333 16.832 49.0088 16.832 48.6754C16.8351 45.9591 17.892 43.355 19.7706 41.4342C21.6493 39.5135 24.1964 38.4331 26.8533 38.4299H49.2467L49.2468 38.4298Z" fill="#109FCB"/>
<path d="M49.2468 38.4298C49.2468 38.5439 49.2425 38.6579 49.2382 38.7719C49.102 41.7983 47.8296 44.6544 45.6857 46.7459C43.5418 48.8373 40.6915 50.0029 37.7283 50H16.9179C16.9007 49.8859 16.8878 49.7719 16.8792 49.6579C16.8492 49.3333 16.832 49.0088 16.832 48.6754C16.8351 45.9591 17.892 43.355 19.7706 41.4342C21.6493 39.5135 24.1964 38.4331 26.8533 38.4299H49.2467L49.2468 38.4298Z" fill="white"/>
<path d="M68.3979 26.562V6.2437H75.5831C77.0346 6.2037 78.4465 6.73005 79.5322 7.71584C80.0518 8.17589 80.4657 8.74758 80.7441 9.3901C81.0226 10.0326 81.1589 10.7301 81.1432 11.4327C81.164 12.3265 80.9313 13.2074 80.4731 13.9689C80.035 14.681 79.3781 15.2244 78.6055 15.5138C79.7677 15.6816 80.8233 16.2969 81.5567 17.2338C82.2634 18.1881 82.6305 19.3605 82.5972 20.557C82.6195 21.3572 82.4775 22.1532 82.1803 22.8938C81.8832 23.6344 81.4376 24.3031 80.8722 24.8569C80.2996 25.421 79.6225 25.8625 78.8806 26.1553C78.1388 26.4481 77.3471 26.5864 76.5523 26.562H68.3979ZM71.962 14.4353H75.0984C75.4372 14.4497 75.7755 14.3953 76.0936 14.2752C76.4118 14.1551 76.7034 13.9718 76.9518 13.7357C77.1879 13.5024 77.3734 13.2208 77.4962 12.9095C77.619 12.5981 77.6764 12.2638 77.6646 11.9283C77.6714 11.6085 77.6113 11.291 77.4883 10.9969C77.3654 10.7028 77.1825 10.4389 76.9518 10.2229C76.4554 9.75804 75.7997 9.5119 75.127 9.53782H71.962V14.4353V14.4353ZM71.962 23.2681H75.9538C76.7724 23.2963 77.5698 22.9984 78.1778 22.4373C78.4638 22.1758 78.6909 21.8541 78.8434 21.4943C78.996 21.1345 79.0705 20.7451 79.0617 20.353C79.0692 19.9675 78.994 19.585 78.8413 19.2324C78.6886 18.8798 78.4621 18.5658 78.1778 18.3124C77.5565 17.7562 76.7505 17.4642 75.9253 17.4962H71.9621V23.2682L71.962 23.2681Z" fill="#109FCB"/>
<path d="M68.3979 26.562V6.2437H75.5831C77.0346 6.2037 78.4465 6.73005 79.5322 7.71584C80.0518 8.17589 80.4657 8.74758 80.7441 9.3901C81.0226 10.0326 81.1589 10.7301 81.1432 11.4327C81.164 12.3265 80.9313 13.2074 80.4731 13.9689C80.035 14.681 79.3781 15.2244 78.6055 15.5138C79.7677 15.6816 80.8233 16.2969 81.5567 17.2338C82.2634 18.1881 82.6305 19.3605 82.5972 20.557C82.6195 21.3572 82.4775 22.1532 82.1803 22.8938C81.8832 23.6344 81.4376 24.3031 80.8722 24.8569C80.2996 25.421 79.6225 25.8625 78.8806 26.1553C78.1388 26.4481 77.3471 26.5864 76.5523 26.562H68.3979ZM71.962 14.4353H75.0984C75.4372 14.4497 75.7755 14.3953 76.0936 14.2752C76.4118 14.1551 76.7034 13.9718 76.9518 13.7357C77.1879 13.5024 77.3734 13.2208 77.4962 12.9095C77.619 12.5981 77.6764 12.2638 77.6646 11.9283C77.6714 11.6085 77.6113 11.291 77.4883 10.9969C77.3654 10.7028 77.1825 10.4389 76.9518 10.2229C76.4554 9.75804 75.7997 9.5119 75.127 9.53782H71.962V14.4353V14.4353ZM71.962 23.2681H75.9538C76.7724 23.2963 77.5698 22.9984 78.1778 22.4373C78.4638 22.1758 78.6909 21.8541 78.8434 21.4943C78.996 21.1345 79.0705 20.7451 79.0617 20.353C79.0692 19.9675 78.994 19.585 78.8413 19.2324C78.6886 18.8798 78.4621 18.5658 78.1778 18.3124C77.5565 17.7562 76.7505 17.4642 75.9253 17.4962H71.9621V23.2682L71.962 23.2681Z" fill="white"/>
<path d="M87.8985 23.9386C86.9317 22.9559 86.1644 21.7875 85.6408 20.5005C85.1172 19.2135 84.8477 17.8334 84.8477 16.4396C84.8477 15.0457 85.1172 13.6656 85.6408 12.3786C86.1644 11.0916 86.9317 9.92317 87.8985 8.94047C89.9069 6.98485 92.5741 5.89404 95.3476 5.89404C98.1211 5.89404 100.788 6.98485 102.797 8.94047C103.766 9.92104 104.537 11.0883 105.063 12.375C105.589 13.6616 105.86 15.042 105.862 16.4365C105.863 17.831 105.594 19.212 105.07 20.4997C104.547 21.7873 103.779 22.9561 102.811 23.9386C100.795 25.8858 98.1277 26.9707 95.3547 26.9707C92.5818 26.9707 89.9139 25.8858 87.8985 23.9386ZM88.3549 16.4469C88.3295 17.4014 88.4946 18.3513 88.8402 19.2384C89.1859 20.1255 89.7047 20.9313 90.365 21.6065C91.6956 22.9359 93.483 23.679 95.3434 23.6763C97.2039 23.6736 98.9891 22.9253 100.316 21.592C101.607 20.201 102.326 18.3568 102.326 16.4395C102.326 14.5222 101.607 12.678 100.316 11.287C98.9939 9.94266 97.2051 9.18804 95.3405 9.18804C93.4759 9.18804 91.6871 9.94266 90.365 11.287C89.7076 11.9645 89.1906 12.7707 88.8452 13.6573C88.4998 14.544 88.3331 15.4928 88.3549 16.4469V16.4469Z" fill="#109FCB"/>
<path d="M87.8985 23.9386C86.9317 22.9559 86.1644 21.7875 85.6408 20.5005C85.1172 19.2135 84.8477 17.8334 84.8477 16.4396C84.8477 15.0457 85.1172 13.6656 85.6408 12.3786C86.1644 11.0916 86.9317 9.92317 87.8985 8.94047C89.9069 6.98485 92.5741 5.89404 95.3476 5.89404C98.1211 5.89404 100.788 6.98485 102.797 8.94047C103.766 9.92104 104.537 11.0883 105.063 12.375C105.589 13.6616 105.86 15.042 105.862 16.4365C105.863 17.831 105.594 19.212 105.07 20.4997C104.547 21.7873 103.779 22.9561 102.811 23.9386C100.795 25.8858 98.1277 26.9707 95.3547 26.9707C92.5818 26.9707 89.9139 25.8858 87.8985 23.9386ZM88.3549 16.4469C88.3295 17.4014 88.4946 18.3513 88.8402 19.2384C89.1859 20.1255 89.7047 20.9313 90.365 21.6065C91.6956 22.9359 93.483 23.679 95.3434 23.6763C97.2039 23.6736 98.9891 22.9253 100.316 21.592C101.607 20.201 102.326 18.3568 102.326 16.4395C102.326 14.5222 101.607 12.678 100.316 11.287C98.9939 9.94266 97.2051 9.18804 95.3405 9.18804C93.4759 9.18804 91.6871 9.94266 90.365 11.287C89.7076 11.9645 89.1906 12.7707 88.8452 13.6573C88.4998 14.544 88.3331 15.4928 88.3549 16.4469V16.4469Z" fill="white"/>
<path d="M111.168 23.9386C110.201 22.9559 109.434 21.7875 108.91 20.5005C108.387 19.2135 108.117 17.8334 108.117 16.4396C108.117 15.0457 108.387 13.6656 108.91 12.3786C109.434 11.0916 110.201 9.92317 111.168 8.94047C113.176 6.98485 115.844 5.89404 118.617 5.89404C121.391 5.89404 124.058 6.98485 126.066 8.94047C127.036 9.92104 127.806 11.0883 128.332 12.375C128.858 13.6616 129.13 15.042 129.131 16.4365C129.133 17.831 128.864 19.212 128.34 20.4997C127.816 21.7873 127.048 22.9561 126.08 23.9386C124.065 25.8858 121.397 26.9707 118.624 26.9707C115.851 26.9707 113.183 25.8858 111.168 23.9386V23.9386ZM111.624 16.4469C111.599 17.4014 111.764 18.3513 112.11 19.2384C112.455 20.1255 112.974 20.9313 113.635 21.6065C114.965 22.9359 116.753 23.679 118.613 23.6763C120.473 23.6736 122.259 22.9253 123.585 21.592C124.876 20.201 125.596 18.3568 125.596 16.4395C125.596 14.5222 124.876 12.678 123.585 11.287C122.263 9.94266 120.475 9.18804 118.61 9.18804C116.745 9.18804 114.957 9.94266 113.635 11.287C112.977 11.9645 112.46 12.7707 112.115 13.6573C111.769 14.544 111.603 15.4928 111.624 16.4469V16.4469Z" fill="#109FCB"/>
<path d="M111.168 23.9386C110.201 22.9559 109.434 21.7875 108.91 20.5005C108.387 19.2135 108.117 17.8334 108.117 16.4396C108.117 15.0457 108.387 13.6656 108.91 12.3786C109.434 11.0916 110.201 9.92317 111.168 8.94047C113.176 6.98485 115.844 5.89404 118.617 5.89404C121.391 5.89404 124.058 6.98485 126.066 8.94047C127.036 9.92104 127.806 11.0883 128.332 12.375C128.858 13.6616 129.13 15.042 129.131 16.4365C129.133 17.831 128.864 19.212 128.34 20.4997C127.816 21.7873 127.048 22.9561 126.08 23.9386C124.065 25.8858 121.397 26.9707 118.624 26.9707C115.851 26.9707 113.183 25.8858 111.168 23.9386V23.9386ZM111.624 16.4469C111.599 17.4014 111.764 18.3513 112.11 19.2384C112.455 20.1255 112.974 20.9313 113.635 21.6065C114.965 22.9359 116.753 23.679 118.613 23.6763C120.473 23.6736 122.259 22.9253 123.585 21.592C124.876 20.201 125.596 18.3568 125.596 16.4395C125.596 14.5222 124.876 12.678 123.585 11.287C122.263 9.94266 120.475 9.18804 118.61 9.18804C116.745 9.18804 114.957 9.94266 113.635 11.287C112.977 11.9645 112.46 12.7707 112.115 13.6573C111.769 14.544 111.603 15.4928 111.624 16.4469V16.4469Z" fill="white"/>
<path d="M132.437 26.562V6.24377H136.001V15.9805L144.413 6.24377H148.633L140.906 15.1932L148.861 26.562H144.698L138.511 17.7878L136.001 20.6155V26.5621H132.437L132.437 26.562Z" fill="#109FCB"/>
<path d="M132.437 26.562V6.24377H136.001V15.9805L144.413 6.24377H148.633L140.906 15.1932L148.861 26.562H144.698L138.511 17.7878L136.001 20.6155V26.5621H132.437L132.437 26.562Z" fill="white"/>
<path d="M151.598 26.562V6.24377H155.162V26.562H151.598V26.562Z" fill="#109FCB"/>
<path d="M151.598 26.562V6.24377H155.162V26.562H151.598V26.562Z" fill="white"/>
<path d="M159.695 26.562V6.24377H162.831L173.353 20.3531V6.24377H176.803V26.562H173.895L163.145 12.1907V26.562H159.695V26.562Z" fill="#109FCB"/>
<path d="M159.695 26.562V6.24377H162.831L173.353 20.3531V6.24377H176.803V26.562H173.895L163.145 12.1907V26.562H159.695V26.562Z" fill="white"/>
<path d="M183.206 23.9242C182.235 22.9409 181.464 21.7706 180.938 20.4809C180.412 19.1912 180.141 17.8077 180.141 16.4104C180.141 15.013 180.412 13.6295 180.938 12.3398C181.464 11.0501 182.235 9.87978 183.206 8.89654C184.197 7.91392 185.368 7.14247 186.653 6.62701C187.938 6.11155 189.311 5.86237 190.691 5.89397C192.061 5.8616 193.423 6.11648 194.693 6.6429C195.963 7.16933 197.114 7.95615 198.076 8.95484L195.709 11.1704C195.044 10.5138 194.258 10.0001 193.396 9.6596C192.534 9.3191 191.614 9.15875 190.69 9.188C189.762 9.16357 188.839 9.33471 187.978 9.69079C187.117 10.0469 186.337 10.5803 185.687 11.2578C184.396 12.6488 183.676 14.493 183.676 16.4103C183.676 18.3276 184.396 20.1718 185.687 21.5628C186.339 22.2364 187.12 22.7663 187.981 23.1197C188.841 23.4732 189.763 23.6427 190.69 23.6179C192.436 23.6681 194.137 23.0435 195.452 21.8687V18.1373H189.921V14.9015H198.817V23.0931C197.855 24.2876 196.641 25.2443 195.267 25.8916C193.834 26.5751 192.271 26.9235 190.69 26.9116C189.312 26.9438 187.94 26.6963 186.656 26.1836C185.371 25.6708 184.199 24.9029 183.206 23.9242Z" fill="#109FCB"/>
<path d="M183.206 23.9242C182.235 22.9409 181.464 21.7706 180.938 20.4809C180.412 19.1912 180.141 17.8077 180.141 16.4104C180.141 15.013 180.412 13.6295 180.938 12.3398C181.464 11.0501 182.235 9.87978 183.206 8.89654C184.197 7.91392 185.368 7.14247 186.653 6.62701C187.938 6.11155 189.311 5.86237 190.691 5.89397C192.061 5.8616 193.423 6.11648 194.693 6.6429C195.963 7.16933 197.114 7.95615 198.076 8.95484L195.709 11.1704C195.044 10.5138 194.258 10.0001 193.396 9.6596C192.534 9.3191 191.614 9.15875 190.69 9.188C189.762 9.16357 188.839 9.33471 187.978 9.69079C187.117 10.0469 186.337 10.5803 185.687 11.2578C184.396 12.6488 183.676 14.493 183.676 16.4103C183.676 18.3276 184.396 20.1718 185.687 21.5628C186.339 22.2364 187.12 22.7663 187.981 23.1197C188.841 23.4732 189.763 23.6427 190.69 23.6179C192.436 23.6681 194.137 23.0435 195.452 21.8687V18.1373H189.921V14.9015H198.817V23.0931C197.855 24.2876 196.641 25.2443 195.267 25.8916C193.834 26.5751 192.271 26.9235 190.69 26.9116C189.312 26.9438 187.94 26.6963 186.656 26.1836C185.371 25.6708 184.199 24.9029 183.206 23.9242Z" fill="white"/>
<path d="M212.472 22.2772L215.152 20.5572C215.587 21.5227 216.295 22.333 217.184 22.8837C218.073 23.4345 219.103 23.7004 220.142 23.6472C221.377 23.6472 222.247 23.3702 222.751 22.8163C223.226 22.3331 223.497 21.6793 223.507 20.9944C223.516 20.5901 223.428 20.1896 223.25 19.8285C223.035 19.4518 222.731 19.136 222.366 18.9102C221.979 18.647 221.574 18.4132 221.154 18.2106C220.764 18.026 220.199 17.7976 219.458 17.5255C218.685 17.2373 217.929 16.9065 217.191 16.5344C216.567 16.2066 215.979 15.8107 215.437 15.3538C214.884 14.9005 214.448 14.3148 214.168 13.6484C213.881 12.927 213.741 12.1533 213.755 11.3745C213.733 10.618 213.882 9.86651 214.192 9.17877C214.501 8.49104 214.961 7.8857 215.537 7.41003C216.77 6.38326 218.324 5.84508 219.914 5.89406C222.632 5.89406 224.675 6.99209 226.044 9.18813L223.507 10.9665C222.746 9.76166 221.567 9.15918 219.971 9.15901C219.275 9.13191 218.592 9.34789 218.032 9.77136C217.792 9.94679 217.597 10.1788 217.463 10.4477C217.329 10.7166 217.26 11.0145 217.262 11.3163C217.258 11.5573 217.287 11.7976 217.348 12.0305C217.409 12.2418 217.516 12.4362 217.661 12.5988C217.799 12.7592 217.947 12.9102 218.104 13.0508C218.318 13.2218 218.552 13.3639 218.802 13.4736C219.125 13.6292 219.386 13.7506 219.586 13.8376C219.786 13.9245 220.128 14.0655 220.612 14.2603C221.097 14.4549 221.482 14.6104 221.767 14.7267C223.649 15.5043 225.003 16.3497 225.831 17.2629C226.69 18.2676 227.135 19.5738 227.071 20.9068C227.1 21.7196 226.956 22.5293 226.648 23.2794C226.34 24.0295 225.876 24.7022 225.289 25.2506C224.101 26.3582 222.376 26.912 220.114 26.9119C218.454 26.9614 216.813 26.5321 215.381 25.6729C214.092 24.8744 213.076 23.6884 212.472 22.2772Z" fill="#109FCB"/>
<path d="M212.472 22.2772L215.152 20.5572C215.587 21.5227 216.295 22.333 217.184 22.8837C218.073 23.4345 219.103 23.7004 220.142 23.6472C221.377 23.6472 222.247 23.3702 222.751 22.8163C223.226 22.3331 223.497 21.6793 223.507 20.9944C223.516 20.5901 223.428 20.1896 223.25 19.8285C223.035 19.4518 222.731 19.136 222.366 18.9102C221.979 18.647 221.574 18.4132 221.154 18.2106C220.764 18.026 220.199 17.7976 219.458 17.5255C218.685 17.2373 217.929 16.9065 217.191 16.5344C216.567 16.2066 215.979 15.8107 215.437 15.3538C214.884 14.9005 214.448 14.3148 214.168 13.6484C213.881 12.927 213.741 12.1533 213.755 11.3745C213.733 10.618 213.882 9.86651 214.192 9.17877C214.501 8.49104 214.961 7.8857 215.537 7.41003C216.77 6.38326 218.324 5.84508 219.914 5.89406C222.632 5.89406 224.675 6.99209 226.044 9.18813L223.507 10.9665C222.746 9.76166 221.567 9.15918 219.971 9.15901C219.275 9.13191 218.592 9.34789 218.032 9.77136C217.792 9.94679 217.597 10.1788 217.463 10.4477C217.329 10.7166 217.26 11.0145 217.262 11.3163C217.258 11.5573 217.287 11.7976 217.348 12.0305C217.409 12.2418 217.516 12.4362 217.661 12.5988C217.799 12.7592 217.947 12.9102 218.104 13.0508C218.318 13.2218 218.552 13.3639 218.802 13.4736C219.125 13.6292 219.386 13.7506 219.586 13.8376C219.786 13.9245 220.128 14.0655 220.612 14.2603C221.097 14.4549 221.482 14.6104 221.767 14.7267C223.649 15.5043 225.003 16.3497 225.831 17.2629C226.69 18.2676 227.135 19.5738 227.071 20.9068C227.1 21.7196 226.956 22.5293 226.648 23.2794C226.34 24.0295 225.876 24.7022 225.289 25.2506C224.101 26.3582 222.376 26.912 220.114 26.9119C218.454 26.9614 216.813 26.5321 215.381 25.6729C214.092 24.8744 213.076 23.6884 212.472 22.2772Z" fill="white"/>
<path d="M234.029 26.5619V9.53772H228.641V6.24365H242.983V9.53772H237.594V26.5619H234.029H234.029Z" fill="#109FCB"/>
<path d="M234.029 26.5619V9.53772H228.641V6.24365H242.983V9.53772H237.594V26.5619H234.029H234.029Z" fill="white"/>
<path d="M245.574 18.7787V6.24365H249.138V18.3997C249.138 20.1489 249.537 21.451 250.336 22.3062C251.242 23.1323 252.415 23.5887 253.629 23.5887C254.844 23.5887 256.016 23.1323 256.922 22.3062C257.721 21.4511 258.12 20.149 258.12 18.3997V6.24365H261.684V18.7786C261.684 21.3833 260.933 23.385 259.431 24.7838C257.93 26.1832 256.001 26.8828 253.643 26.8827C251.518 26.968 249.441 26.2168 247.841 24.7838C246.33 23.3847 245.574 21.383 245.574 18.7787Z" fill="#109FCB"/>
<path d="M245.574 18.7787V6.24365H249.138V18.3997C249.138 20.1489 249.537 21.451 250.336 22.3062C251.242 23.1323 252.415 23.5887 253.629 23.5887C254.844 23.5887 256.016 23.1323 256.922 22.3062C257.721 21.4511 258.12 20.149 258.12 18.3997V6.24365H261.684V18.7786C261.684 21.3833 260.933 23.385 259.431 24.7838C257.93 26.1832 256.001 26.8828 253.643 26.8827C251.518 26.968 249.441 26.2168 247.841 24.7838C246.33 23.3847 245.574 21.383 245.574 18.7787Z" fill="white"/>
<path d="M265.934 26.562V6.24377H273.034C276.322 6.24377 278.883 7.18151 280.718 9.057C282.552 10.9325 283.469 13.3958 283.469 16.4469C283.469 19.4981 282.557 21.9467 280.732 23.7929C278.907 25.639 276.351 26.5621 273.062 26.562H265.934ZM269.498 23.2682H272.806C275.276 23.2682 277.077 22.6512 278.209 21.4171C279.339 20.1832 279.905 18.5264 279.905 16.4469C279.905 14.3093 279.34 12.6234 278.209 11.3892C277.078 10.1549 275.267 9.53784 272.777 9.53784H269.498V23.2682L269.498 23.2682Z" fill="#109FCB"/>
<path d="M265.934 26.562V6.24377H273.034C276.322 6.24377 278.883 7.18151 280.718 9.057C282.552 10.9325 283.469 13.3958 283.469 16.4469C283.469 19.4981 282.557 21.9467 280.732 23.7929C278.907 25.639 276.351 26.5621 273.062 26.562H265.934ZM269.498 23.2682H272.806C275.276 23.2682 277.077 22.6512 278.209 21.4171C279.339 20.1832 279.905 18.5264 279.905 16.4469C279.905 14.3093 279.34 12.6234 278.209 11.3892C277.078 10.1549 275.267 9.53784 272.777 9.53784H269.498V23.2682L269.498 23.2682Z" fill="white"/>
<path d="M292.309 26.5619V18.6912L285.152 6.24365H289.002L294.106 15.1931L299.18 6.24365H303.001L295.844 18.6912V26.5619H292.309H292.309Z" fill="#109FCB"/>
<path d="M292.309 26.5619V18.6912L285.152 6.24365H289.002L294.106 15.1931L299.18 6.24365H303.001L295.844 18.6912V26.5619H292.309H292.309Z" fill="white"/>
<path d="M68.6523 47.3843V35.7432H75.9057V37.6305H70.6942V40.4027H75.5791V42.2901H70.6942V45.4969H76.02V47.3843H68.6524L68.6523 47.3843Z" fill="#109FCB"/>
<path d="M68.6523 47.3843V35.7432H75.9057V37.6305H70.6942V40.4027H75.5791V42.2901H70.6942V45.4969H76.02V47.3843H68.6524L68.6523 47.3843Z" fill="white"/>
<path d="M78.0942 47.3843V35.7432H82.162C84.046 35.7432 85.5135 36.2803 86.5644 37.3545C87.0951 37.9135 87.5086 38.5773 87.7796 39.3053C88.0507 40.0333 88.1736 40.8102 88.1409 41.5884C88.1754 42.3624 88.054 43.1353 87.7843 43.8593C87.5146 44.5833 87.1022 45.243 86.5728 45.7973C85.5271 46.8553 84.0623 47.3843 82.1782 47.3843H78.0942V47.3843ZM80.1361 45.4969H82.0313C83.4468 45.4969 84.4787 45.1433 85.1269 44.4362C85.8023 43.6532 86.1512 42.6312 86.0991 41.5886C86.1565 40.5301 85.8077 39.4904 85.1269 38.6908C84.4788 37.9841 83.4414 37.6306 82.0148 37.6305H80.1361V45.4969V45.4969Z" fill="#109FCB"/>
<path d="M78.0942 47.3843V35.7432H82.162C84.046 35.7432 85.5135 36.2803 86.5644 37.3545C87.0951 37.9135 87.5086 38.5773 87.7796 39.3053C88.0507 40.0333 88.1736 40.8102 88.1409 41.5884C88.1754 42.3624 88.054 43.1353 87.7843 43.8593C87.5146 44.5833 87.1022 45.243 86.5728 45.7973C85.5271 46.8553 84.0623 47.3843 82.1782 47.3843H78.0942V47.3843ZM80.1361 45.4969H82.0313C83.4468 45.4969 84.4787 45.1433 85.1269 44.4362C85.8023 43.6532 86.1512 42.6312 86.0991 41.5886C86.1565 40.5301 85.8077 39.4904 85.1269 38.6908C84.4788 37.9841 83.4414 37.6306 82.0148 37.6305H80.1361V45.4969V45.4969Z" fill="white"/>
<path d="M89.9688 42.9247V35.7432H92.0109V42.7078C91.9478 43.5165 92.1937 44.3187 92.697 44.9459C93.2164 45.4194 93.8879 45.681 94.5838 45.681C95.2796 45.681 95.9512 45.4194 96.4706 44.9459C96.9738 44.3187 97.2197 43.5165 97.1567 42.7078V35.7432H99.1988V42.9247C99.1988 44.4173 98.7686 45.5641 97.9082 46.3653C96.969 47.1435 95.7968 47.5682 94.5879 47.5682C93.3789 47.5682 92.2067 47.1435 91.2675 46.3653C90.4018 45.5638 89.9688 44.4169 89.9688 42.9247Z" fill="#109FCB"/>
<path d="M89.9688 42.9247V35.7432H92.0109V42.7078C91.9478 43.5165 92.1937 44.3187 92.697 44.9459C93.2164 45.4194 93.8879 45.681 94.5838 45.681C95.2796 45.681 95.9512 45.4194 96.4706 44.9459C96.9738 44.3187 97.2197 43.5165 97.1567 42.7078V35.7432H99.1988V42.9247C99.1988 44.4173 98.7686 45.5641 97.9082 46.3653C96.969 47.1435 95.7968 47.5682 94.5879 47.5682C93.3789 47.5682 92.2067 47.1435 91.2675 46.3653C90.4018 45.5638 89.9688 44.4169 89.9688 42.9247Z" fill="white"/>
<path d="M102.787 45.8728C102.231 45.3094 101.789 44.6389 101.488 43.9C101.186 43.161 101.031 42.3684 101.031 41.5678C101.031 40.7672 101.186 39.9745 101.488 39.2356C101.789 38.4967 102.231 37.8262 102.787 37.2628C103.355 36.6999 104.026 36.2579 104.763 35.9627C105.499 35.6674 106.285 35.5247 107.076 35.5428C107.932 35.5259 108.781 35.7045 109.561 36.0657C110.341 36.4269 111.032 36.9616 111.584 37.6306L110.196 38.8497C109.812 38.391 109.332 38.0257 108.792 37.7802C108.253 37.5346 107.666 37.4151 107.076 37.4301C106.544 37.4161 106.015 37.5141 105.521 37.7181C105.028 37.9221 104.581 38.2278 104.208 38.616C103.469 39.413 103.057 40.4696 103.057 41.5681C103.057 42.6666 103.469 43.7233 104.208 44.5202C104.582 44.9062 105.03 45.2098 105.523 45.4123C106.016 45.6148 106.544 45.7119 107.076 45.6976C107.675 45.7163 108.27 45.5951 108.816 45.3433C109.363 45.0915 109.846 44.7157 110.229 44.2444L111.601 45.4639C111.043 46.1332 110.349 46.6699 109.568 47.0362C108.786 47.4026 107.936 47.5899 107.076 47.5849C106.286 47.6032 105.5 47.4613 104.764 47.1675C104.028 46.8736 103.356 46.4336 102.787 45.8728V45.8728Z" fill="#109FCB"/>
<path d="M102.787 45.8728C102.231 45.3094 101.789 44.6389 101.488 43.9C101.186 43.161 101.031 42.3684 101.031 41.5678C101.031 40.7672 101.186 39.9745 101.488 39.2356C101.789 38.4967 102.231 37.8262 102.787 37.2628C103.355 36.6999 104.026 36.2579 104.763 35.9627C105.499 35.6674 106.285 35.5247 107.076 35.5428C107.932 35.5259 108.781 35.7045 109.561 36.0657C110.341 36.4269 111.032 36.9616 111.584 37.6306L110.196 38.8497C109.812 38.391 109.332 38.0257 108.792 37.7802C108.253 37.5346 107.666 37.4151 107.076 37.4301C106.544 37.4161 106.015 37.5141 105.521 37.7181C105.028 37.9221 104.581 38.2278 104.208 38.616C103.469 39.413 103.057 40.4696 103.057 41.5681C103.057 42.6666 103.469 43.7233 104.208 44.5202C104.582 44.9062 105.03 45.2098 105.523 45.4123C106.016 45.6148 106.544 45.7119 107.076 45.6976C107.675 45.7163 108.27 45.5951 108.816 45.3433C109.363 45.0915 109.846 44.7157 110.229 44.2444L111.601 45.4639C111.043 46.1332 110.349 46.6699 109.568 47.0362C108.786 47.4026 107.936 47.5899 107.076 47.5849C106.286 47.6032 105.5 47.4613 104.764 47.1675C104.028 46.8736 103.356 46.4336 102.787 45.8728V45.8728Z" fill="white"/>
<path d="M112.383 47.3843L117.137 35.7432H118.869L123.623 47.3843H121.466L120.535 45.0628H115.471L114.54 47.3843H112.383H112.383ZM116.108 43.3423H119.898L118.003 38.5989L116.108 43.3423Z" fill="#109FCB"/>
<path d="M112.383 47.3843L117.137 35.7432H118.869L123.623 47.3843H121.466L120.535 45.0628H115.471L114.54 47.3843H112.383H112.383ZM116.108 43.3423H119.898L118.003 38.5989L116.108 43.3423Z" fill="white"/>
<path d="M127.412 47.3843V37.6305H124.324V35.7432H132.542V37.6305H129.454V47.3843H127.412L127.412 47.3843Z" fill="#109FCB"/>
<path d="M127.412 47.3843V37.6305H124.324V35.7432H132.542V37.6305H129.454V47.3843H127.412L127.412 47.3843Z" fill="white"/>
<path d="M134.191 47.3843V35.7432H136.233V47.3843H134.191V47.3843Z" fill="#109FCB"/>
<path d="M134.191 47.3843V35.7432H136.233V47.3843H134.191V47.3843Z" fill="white"/>
<path d="M139.975 45.8814C139.421 45.3183 138.982 44.6488 138.682 43.9114C138.382 43.174 138.227 42.3833 138.227 41.5846C138.227 40.786 138.382 39.9952 138.682 39.2578C138.982 38.5204 139.421 37.851 139.975 37.2879C141.126 36.1676 142.654 35.5427 144.243 35.5427C145.832 35.5427 147.36 36.1676 148.511 37.2879C149.067 37.8497 149.508 38.5186 149.809 39.2558C150.111 39.993 150.266 40.7839 150.267 41.5829C150.268 42.3819 150.114 43.1732 149.814 43.911C149.514 44.6487 149.074 45.3184 148.519 45.8814C147.364 46.9967 145.836 47.618 144.247 47.618C142.659 47.618 141.13 46.9967 139.975 45.8814V45.8814ZM140.237 41.5887C140.222 42.1356 140.317 42.6798 140.515 43.188C140.713 43.6963 141.01 44.1579 141.388 44.5448C142.151 45.3064 143.175 45.7322 144.241 45.7307C145.306 45.7292 146.329 45.3005 147.09 44.5367C147.829 43.7398 148.241 42.6832 148.241 41.5847C148.241 40.4861 147.829 39.4295 147.09 38.6326C146.332 37.8625 145.307 37.4302 144.239 37.4302C143.171 37.4302 142.146 37.8625 141.388 38.6326C141.012 39.0207 140.716 39.4826 140.518 39.9905C140.32 40.4985 140.224 41.042 140.237 41.5886L140.237 41.5887Z" fill="#109FCB"/>
<path d="M139.975 45.8814C139.421 45.3183 138.982 44.6488 138.682 43.9114C138.382 43.174 138.227 42.3833 138.227 41.5846C138.227 40.786 138.382 39.9952 138.682 39.2578C138.982 38.5204 139.421 37.851 139.975 37.2879C141.126 36.1676 142.654 35.5427 144.243 35.5427C145.832 35.5427 147.36 36.1676 148.511 37.2879C149.067 37.8497 149.508 38.5186 149.809 39.2558C150.111 39.993 150.266 40.7839 150.267 41.5829C150.268 42.3819 150.114 43.1732 149.814 43.911C149.514 44.6487 149.074 45.3184 148.519 45.8814C147.364 46.9967 145.836 47.618 144.247 47.618C142.659 47.618 141.13 46.9967 139.975 45.8814V45.8814ZM140.237 41.5887C140.222 42.1356 140.317 42.6798 140.515 43.188C140.713 43.6963 141.01 44.1579 141.388 44.5448C142.151 45.3064 143.175 45.7322 144.241 45.7307C145.306 45.7292 146.329 45.3005 147.09 44.5367C147.829 43.7398 148.241 42.6832 148.241 41.5847C148.241 40.4861 147.829 39.4295 147.09 38.6326C146.332 37.8625 145.307 37.4302 144.239 37.4302C143.171 37.4302 142.146 37.8625 141.388 38.6326C141.012 39.0207 140.716 39.4826 140.518 39.9905C140.32 40.4985 140.224 41.042 140.237 41.5886L140.237 41.5887Z" fill="white"/>
<path d="M152.164 47.3843V35.7432H153.961L159.989 43.8267V35.7432H161.966V47.3843H160.299L154.141 39.1501V47.3843H152.164V47.3843Z" fill="#109FCB"/>
<path d="M152.164 47.3843V35.7432H153.961L159.989 43.8267V35.7432H161.966V47.3843H160.299L154.141 39.1501V47.3843H152.164V47.3843Z" fill="white"/>
<path d="M170.246 47.3843L175 35.7432H176.732L181.486 47.3843H179.329L178.398 45.0628H173.334L172.403 47.3843H170.246L170.246 47.3843ZM173.971 43.3423H177.761L175.866 38.5988L173.971 43.3423Z" fill="#109FCB"/>
<path d="M170.246 47.3843L175 35.7432H176.732L181.486 47.3843H179.329L178.398 45.0628H173.334L172.403 47.3843H170.246L170.246 47.3843ZM173.971 43.3423H177.761L175.866 38.5988L173.971 43.3423Z" fill="white"/>
<path d="M183.117 47.3843V35.7432H187.234C188.066 35.7201 188.875 36.0216 189.497 36.5864C189.794 36.8499 190.031 37.1774 190.191 37.5455C190.351 37.9136 190.429 38.3132 190.42 38.7157C190.432 39.2278 190.298 39.7326 190.036 40.1689C189.785 40.5769 189.408 40.8882 188.966 41.0542C189.632 41.1502 190.236 41.5027 190.657 42.0395C191.062 42.5862 191.272 43.2579 191.253 43.9434C191.265 44.4019 191.184 44.858 191.014 45.2823C190.844 45.7066 190.588 46.0898 190.264 46.4071C189.936 46.7303 189.548 46.9832 189.124 47.151C188.699 47.3187 188.245 47.3979 187.79 47.384H183.117L183.117 47.3843ZM185.159 40.4364H186.956C187.15 40.4446 187.344 40.4135 187.527 40.3446C187.709 40.2758 187.876 40.1707 188.018 40.0354C188.154 39.9017 188.26 39.7404 188.33 39.562C188.4 39.3835 188.433 39.192 188.427 38.9998C188.43 38.8166 188.396 38.6347 188.326 38.4662C188.255 38.2978 188.15 38.1466 188.018 38.0229C187.734 37.7566 187.358 37.6156 186.973 37.6305H185.16V40.4364H185.159ZM185.159 45.497H187.447C187.916 45.5131 188.372 45.3426 188.721 45.0213C188.884 44.8715 189.015 44.6872 189.102 44.481C189.19 44.2748 189.232 44.0516 189.227 43.8269C189.232 43.606 189.189 43.3868 189.101 43.1848C189.013 42.9828 188.884 42.8028 188.721 42.6577C188.365 42.3392 187.903 42.172 187.43 42.1903H185.159V45.4972L185.159 45.497Z" fill="#109FCB"/>
<path d="M183.117 47.3843V35.7432H187.234C188.066 35.7201 188.875 36.0216 189.497 36.5864C189.794 36.8499 190.031 37.1774 190.191 37.5455C190.351 37.9136 190.429 38.3132 190.42 38.7157C190.432 39.2278 190.298 39.7326 190.036 40.1689C189.785 40.5769 189.408 40.8882 188.966 41.0542C189.632 41.1502 190.236 41.5027 190.657 42.0395C191.062 42.5862 191.272 43.2579 191.253 43.9434C191.265 44.4019 191.184 44.858 191.014 45.2823C190.844 45.7066 190.588 46.0898 190.264 46.4071C189.936 46.7303 189.548 46.9832 189.124 47.151C188.699 47.3187 188.245 47.3979 187.79 47.384H183.117L183.117 47.3843ZM185.159 40.4364H186.956C187.15 40.4446 187.344 40.4135 187.527 40.3446C187.709 40.2758 187.876 40.1707 188.018 40.0354C188.154 39.9017 188.26 39.7404 188.33 39.562C188.4 39.3835 188.433 39.192 188.427 38.9998C188.43 38.8166 188.396 38.6347 188.326 38.4662C188.255 38.2978 188.15 38.1466 188.018 38.0229C187.734 37.7566 187.358 37.6156 186.973 37.6305H185.16V40.4364H185.159ZM185.159 45.497H187.447C187.916 45.5131 188.372 45.3426 188.721 45.0213C188.884 44.8715 189.015 44.6872 189.102 44.481C189.19 44.2748 189.232 44.0516 189.227 43.8269C189.232 43.606 189.189 43.3868 189.101 43.1848C189.013 42.9828 188.884 42.8028 188.721 42.6577C188.365 42.3392 187.903 42.172 187.43 42.1903H185.159V45.4972L185.159 45.497Z" fill="white"/>
<path d="M193.149 47.3842V35.7432H197.576C198.059 35.7334 198.539 35.8222 198.988 36.0042C199.436 36.1863 199.845 36.458 200.19 36.8034C200.54 37.14 200.817 37.5482 201.003 38.0014C201.189 38.4546 201.279 38.9427 201.268 39.434C201.28 40.151 201.081 40.855 200.697 41.455C200.334 42.0291 199.81 42.4775 199.194 42.7412L201.954 47.3841H199.651L197.217 43.2421H195.191V47.3841H193.149V47.3842ZM195.191 41.3715H197.364C197.614 41.3816 197.863 41.3394 198.096 41.2474C198.329 41.1555 198.541 41.0158 198.72 40.8368C198.894 40.657 199.03 40.4429 199.119 40.2074C199.209 39.9719 199.251 39.7201 199.242 39.4675C199.251 39.2253 199.212 38.9838 199.128 38.7572C199.044 38.5306 198.916 38.3235 198.752 38.148C198.595 37.9791 198.404 37.8457 198.193 37.7566C197.982 37.6674 197.755 37.6245 197.527 37.6305H195.191V41.3715H195.191Z" fill="#109FCB"/>
<path d="M193.149 47.3842V35.7432H197.576C198.059 35.7334 198.539 35.8222 198.988 36.0042C199.436 36.1863 199.845 36.458 200.19 36.8034C200.54 37.14 200.817 37.5482 201.003 38.0014C201.189 38.4546 201.279 38.9427 201.268 39.434C201.28 40.151 201.081 40.855 200.697 41.455C200.334 42.0291 199.81 42.4775 199.194 42.7412L201.954 47.3841H199.651L197.217 43.2421H195.191V47.3841H193.149V47.3842ZM195.191 41.3715H197.364C197.614 41.3816 197.863 41.3394 198.096 41.2474C198.329 41.1555 198.541 41.0158 198.72 40.8368C198.894 40.657 199.03 40.4429 199.119 40.2074C199.209 39.9719 199.251 39.7201 199.242 39.4675C199.251 39.2253 199.212 38.9838 199.128 38.7572C199.044 38.5306 198.916 38.3235 198.752 38.148C198.595 37.9791 198.404 37.8457 198.193 37.7566C197.982 37.6674 197.755 37.6245 197.527 37.6305H195.191V41.3715H195.191Z" fill="white"/>
<path d="M204.681 45.8814C204.127 45.3183 203.688 44.6488 203.388 43.9114C203.088 43.174 202.934 42.3832 202.934 41.5846C202.934 40.786 203.088 39.9953 203.388 39.2579C203.688 38.5205 204.127 37.851 204.681 37.2879C205.832 36.1677 207.36 35.5428 208.949 35.5428C210.538 35.5428 212.066 36.1677 213.217 37.2879C213.772 37.8498 214.214 38.5186 214.515 39.2558C214.816 39.9929 214.972 40.7839 214.973 41.5829C214.974 42.3819 214.819 43.1731 214.52 43.9109C214.22 44.6487 213.78 45.3184 213.225 45.8814C212.07 46.9966 210.542 47.6179 208.953 47.6179C207.365 47.6179 205.836 46.9966 204.681 45.8814V45.8814ZM204.943 41.5887C204.928 42.1356 205.023 42.6798 205.221 43.188C205.419 43.6963 205.716 44.1579 206.094 44.5448C206.857 45.3064 207.881 45.7322 208.947 45.7307C210.013 45.7292 211.036 45.3005 211.796 44.5368C212.535 43.7398 212.948 42.6831 212.948 41.5847C212.948 40.4862 212.535 39.4296 211.796 38.6326C211.038 37.8624 210.014 37.4301 208.945 37.4301C207.877 37.4301 206.852 37.8624 206.094 38.6326C205.718 39.0207 205.422 39.4826 205.224 39.9905C205.026 40.4985 204.93 41.042 204.943 41.5886L204.943 41.5887Z" fill="#109FCB"/>
<path d="M204.681 45.8814C204.127 45.3183 203.688 44.6488 203.388 43.9114C203.088 43.174 202.934 42.3832 202.934 41.5846C202.934 40.786 203.088 39.9953 203.388 39.2579C203.688 38.5205 204.127 37.851 204.681 37.2879C205.832 36.1677 207.36 35.5428 208.949 35.5428C210.538 35.5428 212.066 36.1677 213.217 37.2879C213.772 37.8498 214.214 38.5186 214.515 39.2558C214.816 39.9929 214.972 40.7839 214.973 41.5829C214.974 42.3819 214.819 43.1731 214.52 43.9109C214.22 44.6487 213.78 45.3184 213.225 45.8814C212.07 46.9966 210.542 47.6179 208.953 47.6179C207.365 47.6179 205.836 46.9966 204.681 45.8814V45.8814ZM204.943 41.5887C204.928 42.1356 205.023 42.6798 205.221 43.188C205.419 43.6963 205.716 44.1579 206.094 44.5448C206.857 45.3064 207.881 45.7322 208.947 45.7307C210.013 45.7292 211.036 45.3005 211.796 44.5368C212.535 43.7398 212.948 42.6831 212.948 41.5847C212.948 40.4862 212.535 39.4296 211.796 38.6326C211.038 37.8624 210.014 37.4301 208.945 37.4301C207.877 37.4301 206.852 37.8624 206.094 38.6326C205.718 39.0207 205.422 39.4826 205.224 39.9905C205.026 40.4985 204.93 41.042 204.943 41.5886L204.943 41.5887Z" fill="white"/>
<path d="M215.988 47.3843L220.742 35.7432H222.474L227.228 47.3843H225.071L224.141 45.0628H219.076L218.145 47.3843H215.988H215.988ZM219.713 43.3423H223.503L221.609 38.5989L219.713 43.3423Z" fill="#109FCB"/>
<path d="M215.988 47.3843L220.742 35.7432H222.474L227.228 47.3843H225.071L224.141 45.0628H219.076L218.145 47.3843H215.988H215.988ZM219.713 43.3423H223.503L221.609 38.5989L219.713 43.3423Z" fill="white"/>
<path d="M228.86 47.3843V35.7432H232.928C234.812 35.7432 236.279 36.2803 237.33 37.3545C237.861 37.9136 238.274 38.5774 238.545 39.3054C238.816 40.0334 238.939 40.8102 238.906 41.5884C238.941 42.3624 238.82 43.1354 238.55 43.8594C238.28 44.5834 237.867 45.243 237.338 45.7973C236.293 46.8553 234.828 47.3843 232.944 47.3843H228.859L228.86 47.3843ZM230.902 45.4969H232.797C234.213 45.4969 235.245 45.1433 235.893 44.4362C236.568 43.6531 236.917 42.6311 236.864 41.5886C236.922 40.5301 236.573 39.4905 235.893 38.6908C235.245 37.9841 234.207 37.6306 232.781 37.6305H230.902V45.4969Z" fill="#109FCB"/>
<path d="M228.86 47.3843V35.7432H232.928C234.812 35.7432 236.279 36.2803 237.33 37.3545C237.861 37.9136 238.274 38.5774 238.545 39.3054C238.816 40.0334 238.939 40.8102 238.906 41.5884C238.941 42.3624 238.82 43.1354 238.55 43.8594C238.28 44.5834 237.867 45.243 237.338 45.7973C236.293 46.8553 234.828 47.3843 232.944 47.3843H228.859L228.86 47.3843ZM230.902 45.4969H232.797C234.213 45.4969 235.245 45.1433 235.893 44.4362C236.568 43.6531 236.917 42.6311 236.864 41.5886C236.922 40.5301 236.573 39.4905 235.893 38.6908C235.245 37.9841 234.207 37.6306 232.781 37.6305H230.902V45.4969Z" fill="white"/>
</g>
<defs>
<clipPath id="clip0_0_6343">
<rect width="303" height="50" fill="white"/>
</clipPath>
</defs>
</svg>
