<svg width="49" height="50" viewBox="0 0 49 50" fill="none" xmlns="http://www.w3.org/2000/svg">
<rect width="49" height="50" rx="24.5" fill="#FF353C"/>
<path d="M26.6586 34.8894C20.5812 31.3219 17.544 27.6377 15.1496 20.1741C14.8785 19.3293 15.0068 18.394 15.5649 17.7043C16.6015 16.4235 17.736 15.493 18.9799 14.8241C20.0689 14.2385 21.39 14.6501 22.1409 15.6324C22.7946 16.4875 23.2836 17.1982 23.7017 17.918C24.262 18.8829 24.0928 20.0843 23.4032 20.9616L22.6579 21.9098C23.5904 23.9427 24.9479 25.8263 27.2324 27.2102L27.6367 26.8748C28.7958 25.9134 30.5368 25.9192 31.4964 27.0797C32.1525 27.8731 32.6773 28.7207 33.0421 29.7482C33.2583 30.357 33.1987 31.0332 32.8694 31.589C32.0835 32.9152 30.9876 33.8663 29.6973 34.7741C28.7982 35.4067 27.6066 35.4459 26.6586 34.8894Z" stroke="white" stroke-width="2"/>
</svg>
