<svg width="158" height="76" viewBox="0 0 158 76" fill="none" xmlns="http://www.w3.org/2000/svg">
<g filter="url(#filter0_d_0_6340)">
<rect x="13" y="6" width="132" height="50" rx="25" fill="#FF353C"/>
</g>
<path d="M55.04 37.216C54.032 37.216 53.126 37.03 52.322 36.658C51.518 36.286 50.918 35.812 50.522 35.236L51.404 34.282C51.764 34.762 52.268 35.152 52.916 35.452C53.576 35.74 54.272 35.884 55.004 35.884C55.94 35.884 56.678 35.686 57.218 35.29C57.758 34.882 58.028 34.33 58.028 33.634C58.028 32.914 57.746 32.38 57.182 32.032C56.63 31.684 55.874 31.51 54.914 31.51H52.466V30.178H54.914C55.766 30.178 56.462 30.016 57.002 29.692C57.554 29.356 57.83 28.858 57.83 28.198C57.83 27.55 57.554 27.046 57.002 26.686C56.462 26.326 55.778 26.146 54.95 26.146C53.594 26.146 52.46 26.632 51.548 27.604L50.72 26.668C51.2 26.116 51.812 25.672 52.556 25.336C53.312 24.988 54.146 24.814 55.058 24.814C56.282 24.814 57.302 25.102 58.118 25.678C58.946 26.254 59.36 27.034 59.36 28.018C59.36 28.81 59.09 29.446 58.55 29.926C58.022 30.394 57.428 30.688 56.768 30.808C57.428 30.868 58.052 31.156 58.64 31.672C59.24 32.188 59.54 32.884 59.54 33.76C59.54 34.768 59.126 35.596 58.298 36.244C57.47 36.892 56.384 37.216 55.04 37.216ZM68.6477 37H67.2977V36.01C66.5657 36.814 65.6057 37.216 64.4177 37.216C63.6137 37.216 62.9057 36.958 62.2937 36.442C61.6817 35.926 61.3757 35.224 61.3757 34.336C61.3757 33.424 61.6757 32.722 62.2757 32.23C62.8877 31.726 63.6017 31.474 64.4177 31.474C65.6537 31.474 66.6137 31.87 67.2977 32.662V31.096C67.2977 30.52 67.0937 30.07 66.6857 29.746C66.2777 29.422 65.7497 29.26 65.1017 29.26C64.0817 29.26 63.1937 29.662 62.4377 30.466L61.8077 29.53C62.7317 28.57 63.8897 28.09 65.2817 28.09C66.2777 28.09 67.0877 28.33 67.7117 28.81C68.3357 29.29 68.6477 30.028 68.6477 31.024V37ZM64.9037 36.244C65.9837 36.244 66.7817 35.884 67.2977 35.164V33.526C66.7817 32.806 65.9837 32.446 64.9037 32.446C64.2797 32.446 63.7637 32.626 63.3557 32.986C62.9597 33.334 62.7617 33.79 62.7617 34.354C62.7617 34.906 62.9597 35.362 63.3557 35.722C63.7637 36.07 64.2797 36.244 64.9037 36.244ZM72.6499 37H71.0659L73.3879 33.58C72.7279 33.496 72.1879 33.22 71.7679 32.752C71.3599 32.284 71.1559 31.69 71.1559 30.97C71.1559 30.202 71.4019 29.566 71.8939 29.062C72.3859 28.558 73.0579 28.306 73.9099 28.306H78.4999V37H77.1499V33.634H74.7739L72.6499 37ZM74.0539 32.446H77.1499V29.494H74.0539C73.5859 29.494 73.2139 29.632 72.9379 29.908C72.6739 30.172 72.5419 30.526 72.5419 30.97C72.5419 31.414 72.6739 31.774 72.9379 32.05C73.2019 32.314 73.5739 32.446 74.0539 32.446ZM86.0757 37H81.1977V28.306H85.9857C86.7417 28.306 87.3357 28.51 87.7677 28.918C88.2117 29.326 88.4337 29.866 88.4337 30.538C88.4337 31.03 88.2957 31.456 88.0197 31.816C87.7557 32.164 87.4257 32.398 87.0297 32.518C87.4737 32.626 87.8457 32.884 88.1457 33.292C88.4577 33.7 88.6137 34.15 88.6137 34.642C88.6137 35.35 88.3857 35.92 87.9297 36.352C87.4857 36.784 86.8677 37 86.0757 37ZM85.8057 35.812C86.2377 35.812 86.5797 35.692 86.8317 35.452C87.0837 35.212 87.2097 34.888 87.2097 34.48C87.2097 34.108 87.0837 33.79 86.8317 33.526C86.5797 33.262 86.2377 33.13 85.8057 33.13H82.5477V35.812H85.8057ZM85.7517 31.942C86.1597 31.942 86.4777 31.834 86.7057 31.618C86.9337 31.39 87.0477 31.096 87.0477 30.736C87.0477 30.352 86.9337 30.052 86.7057 29.836C86.4777 29.608 86.1597 29.494 85.7517 29.494H82.5477V31.942H85.7517ZM98.8145 37H97.0865L93.9545 33.094L92.5145 34.516V37H91.1645V28.306H92.5145V32.932L97.0865 28.306H98.7965L94.9445 32.248L98.8145 37ZM107.197 37H105.847V36.01C105.115 36.814 104.155 37.216 102.967 37.216C102.163 37.216 101.455 36.958 100.843 36.442C100.231 35.926 99.9245 35.224 99.9245 34.336C99.9245 33.424 100.225 32.722 100.825 32.23C101.437 31.726 102.151 31.474 102.967 31.474C104.203 31.474 105.163 31.87 105.847 32.662V31.096C105.847 30.52 105.643 30.07 105.235 29.746C104.827 29.422 104.299 29.26 103.651 29.26C102.631 29.26 101.743 29.662 100.987 30.466L100.357 29.53C101.281 28.57 102.439 28.09 103.831 28.09C104.827 28.09 105.637 28.33 106.261 28.81C106.885 29.29 107.197 30.028 107.197 31.024V37ZM103.453 36.244C104.533 36.244 105.331 35.884 105.847 35.164V33.526C105.331 32.806 104.533 32.446 103.453 32.446C102.829 32.446 102.313 32.626 101.905 32.986C101.509 33.334 101.311 33.79 101.311 34.354C101.311 34.906 101.509 35.362 101.905 35.722C102.313 36.07 102.829 36.244 103.453 36.244Z" fill="white"/>
<defs>
<filter id="filter0_d_0_6340" x="0" y="0" width="158" height="76" filterUnits="userSpaceOnUse" color-interpolation-filters="sRGB">
<feFlood flood-opacity="0" result="BackgroundImageFix"/>
<feColorMatrix in="SourceAlpha" type="matrix" values="0 0 0 0 0 0 0 0 0 0 0 0 0 0 0 0 0 0 127 0" result="hardAlpha"/>
<feOffset dy="7"/>
<feGaussianBlur stdDeviation="6.5"/>
<feColorMatrix type="matrix" values="0 0 0 0 1 0 0 0 0 0.207843 0 0 0 0 0.235294 0 0 0 0.25 0"/>
<feBlend mode="normal" in2="BackgroundImageFix" result="effect1_dropShadow_0_6340"/>
<feBlend mode="normal" in="SourceGraphic" in2="effect1_dropShadow_0_6340" result="shape"/>
</filter>
</defs>
</svg>
